<svg width="40" height="40" viewBox="0 0 40 40" fill="none" xmlns="http://www.w3.org/2000/svg">
<rect width="40" height="39.322" fill="#AC0014"/>
<path d="M19.7775 3.91187L20.1136 9.01874H19.7775C19.3293 7.49041 18.657 6.37211 17.7979 5.70114C16.9389 5.03016 15.9305 4.69467 14.7353 4.69467C13.9509 4.69467 13.2413 4.84378 12.6063 5.14199C11.9714 5.4402 11.3738 5.88752 10.9256 6.48394C10.4401 7.08037 10.1039 7.86317 9.80511 8.75781C9.50631 9.65244 9.39426 10.7707 9.39426 12.0009C9.39426 13.0073 9.50631 13.902 9.76776 14.722C10.0292 15.5421 10.3654 16.2504 10.8509 16.8095C11.3364 17.406 11.934 17.8533 12.6063 18.1515C13.316 18.4497 14.1003 18.6361 14.9967 18.6361C15.9305 18.6361 16.8269 18.4124 17.5738 18.0024C18.3208 17.6296 19.1425 16.7723 20.0389 15.5049L20.3751 15.7285C19.6281 17.0705 18.7317 18.0397 17.7232 18.6734C16.7148 19.3071 15.5196 19.6053 14.1377 19.6053C13.0545 19.6053 12.0834 19.4189 11.187 19.0461C10.2907 18.6734 9.50631 18.1515 8.87137 17.4805C8.23642 16.8095 7.71353 15.9894 7.34003 15.0575C6.96653 14.1256 6.77979 13.0819 6.77979 12.0009C6.77979 10.4725 7.11593 9.0933 7.78823 7.86317C8.57257 6.59577 9.50631 5.62658 10.6642 4.95561C11.8593 4.24735 13.1666 3.91187 14.5485 3.91187C15.6317 3.91187 16.7148 4.1728 17.7606 4.69467C18.0967 4.88105 18.3208 4.95561 18.4329 4.95561C18.6943 4.95561 18.8811 4.84378 19.0305 4.65739C19.1799 4.47101 19.2919 4.21008 19.3666 3.91187H19.7775Z" fill="white"/>
<path d="M32.6259 14.6474L32.9994 14.7219L31.6548 18.9342H19.5908V18.5241H20.1884C20.8234 18.5241 21.3089 18.3005 21.6077 17.8904C21.7571 17.6295 21.8318 17.0704 21.8318 16.213V6.14835C21.8318 5.17916 21.7198 4.58274 21.4957 4.3218C21.1969 3.98632 20.7487 3.79993 20.1884 3.79993H19.5908V3.38989H26.6499V3.79993C26.2391 3.79993 25.8656 3.83721 25.6041 3.87449C25.3053 3.91176 25.0812 3.98632 24.8945 4.06087C24.7077 4.13542 24.5583 4.20998 24.4836 4.3218C24.4089 4.43363 24.2969 4.54546 24.2222 4.65729C24.1101 4.88095 24.0728 5.47738 24.0728 6.40929V16.1757C24.0728 16.6976 24.1101 17.1076 24.1848 17.3313C24.2595 17.555 24.4089 17.7413 24.6704 17.8159C24.8945 17.8904 25.4921 17.9277 26.4632 17.9277H27.5837C28.7788 17.9277 29.6379 17.8532 30.0861 17.6668C30.3102 17.5922 30.5716 17.4804 30.7584 17.3313C30.9825 17.1822 31.1692 16.9958 31.3933 16.7349C31.6174 16.4739 31.8042 16.213 31.9909 15.8775C32.215 15.542 32.4018 15.132 32.6259 14.6474Z" fill="white"/>
<path d="M28.3678 19.6051C28.3678 22.0654 27.6581 24.2274 26.2015 26.1658C24.7075 28.1414 22.9147 29.1479 20.8605 29.1479C20.1508 29.1479 19.5159 28.9615 18.993 28.5887C18.4328 28.1787 18.1713 27.6195 18.1713 26.9858C18.1713 26.5758 18.2834 26.203 18.5448 25.9048C18.8063 25.5693 19.1051 25.4202 19.4785 25.4202C19.6653 25.4202 19.852 25.4575 20.0388 25.4948C20.2255 25.5321 20.3376 25.6066 20.4123 25.7185C20.487 25.793 20.4496 25.8676 20.3749 25.9048C20.0761 26.0539 19.8894 26.1658 19.852 26.2776C19.74 26.464 19.6653 26.7249 19.6653 27.0604C19.6653 27.5077 19.852 27.8432 20.2629 28.1041C20.599 28.3278 21.0099 28.4024 21.4581 28.4024C22.8027 28.4024 23.9232 27.5823 24.8569 25.9794C25.7533 24.4138 26.2388 22.5499 26.2388 20.3879C26.2388 18.6359 25.828 17.1076 25.0437 15.8402C24.1846 14.4237 23.0268 13.7154 21.6448 13.7154C20.5243 13.7154 19.5906 14.0509 18.7689 14.6846C17.9099 15.3929 17.4617 16.2502 17.4617 17.2567V30.378C17.4617 31.9809 17.1629 33.3229 16.5279 34.3666C15.893 35.4103 15.1833 35.9322 14.3243 35.9322C13.9134 35.9322 13.5773 35.8577 13.2785 35.6713C12.9797 35.4849 12.8677 35.2612 12.8677 34.9257C12.8303 34.7021 12.8677 34.553 12.9424 34.3666C13.0171 34.2175 13.1291 34.1057 13.2411 33.9938C13.3158 33.9566 13.3532 33.9193 13.3905 33.9193C13.4652 33.9193 13.5026 33.9566 13.4652 34.0684C13.4279 34.2175 13.4279 34.3666 13.4279 34.4784C13.4652 34.6648 13.5399 34.8139 13.6146 34.8885C13.764 35.0376 13.9134 35.0748 14.1749 35.0748C14.2496 35.0748 14.2869 35.0748 14.3616 35.0748C14.8098 35.0003 15.146 34.7021 15.3327 34.1802C15.5195 33.6583 15.6315 32.9128 15.6315 31.9436V15.8029C15.4074 15.8775 15.1833 15.9147 14.9219 15.952C14.6604 15.9893 14.3616 15.9893 13.9881 15.9893C13.652 15.9893 13.3158 15.8775 13.0544 15.6538C12.793 15.4301 12.6436 15.1319 12.6436 14.7964C12.6436 14.2 12.9424 13.8645 13.5026 13.7527C13.6146 13.7527 13.6893 13.7154 13.7267 13.7154C13.8761 13.7154 13.9508 13.7527 14.0255 13.79C14.1002 13.8645 14.1749 13.9018 14.1749 13.9391C14.1749 13.9764 14.1002 14.0136 13.9881 14.0882C13.8387 14.1627 13.764 14.3118 13.764 14.5355C13.764 14.5728 13.764 14.6101 13.764 14.6473C13.764 14.6846 13.8014 14.7219 13.8014 14.7219C13.8761 14.871 13.9881 14.9828 14.1375 15.0201C14.2869 15.0574 14.511 15.0947 14.7351 15.0947C14.8472 15.0947 14.9219 15.0947 14.9592 15.0947C15.258 15.0947 15.8183 14.9083 16.6026 14.5355C17.6858 14.0509 18.5075 13.7154 19.0677 13.4918C20.1882 13.119 21.234 12.9326 22.1677 12.9326C23.9232 12.9326 25.4172 13.6036 26.6497 14.9455C27.7702 16.2129 28.3678 17.7786 28.3678 19.6051Z" fill="white"/>
</svg>
