<svg width="283" height="54" viewBox="0 0 283 54" fill="none" xmlns="http://www.w3.org/2000/svg">
<path d="M59.8174 5.85327C60.5409 5.85327 61.1576 5.95705 61.6676 6.16459C62.1835 6.37214 62.6846 6.66271 63.1708 7.0363C63.3013 7.14303 63.4199 7.1964 63.5266 7.1964C63.7757 7.1964 63.9299 6.83468 63.9892 6.11122H64.4072C64.3598 6.89991 64.3361 8.29641 64.3361 10.3007H63.918C63.8291 9.75518 63.746 9.33119 63.6689 9.02876C63.5978 8.72633 63.5118 8.47134 63.411 8.26379C63.3102 8.05032 63.1738 7.83091 63.0018 7.60557C62.6342 7.13117 62.1687 6.77538 61.6053 6.53818C61.042 6.30098 60.4342 6.18238 59.7819 6.18238C58.9932 6.18238 58.3023 6.4433 57.7094 6.96514C57.1164 7.48697 56.6568 8.23118 56.3306 9.19776C56.0045 10.1643 55.8414 11.297 55.8414 12.5956C55.8414 13.918 56.0193 15.0536 56.3751 16.0024C56.7309 16.9512 57.2201 17.6717 57.8428 18.1638C58.4654 18.656 59.1711 18.9021 59.9598 18.9021C60.5646 18.9021 61.1547 18.7865 61.7299 18.5552C62.3051 18.3239 62.7528 17.977 63.073 17.5145C63.322 17.1824 63.4999 16.8237 63.6067 16.4382C63.7134 16.0468 63.8172 15.445 63.918 14.6326H64.3361C64.3361 16.7258 64.3598 18.1846 64.4072 19.0089H63.9892C63.9595 18.6293 63.9091 18.3566 63.838 18.1905C63.7727 18.0186 63.6749 17.9326 63.5444 17.9326C63.4495 17.9326 63.325 17.983 63.1708 18.0838C62.8091 18.3388 62.4741 18.5493 62.1657 18.7153C61.8633 18.8754 61.5164 19.0059 61.125 19.1067C60.7336 19.2134 60.2918 19.2668 59.7997 19.2668C58.6433 19.2668 57.6293 19.0059 56.7576 18.4841C55.8918 17.9622 55.2188 17.2062 54.7384 16.2159C54.2641 15.2196 54.0269 14.0366 54.0269 12.6668C54.0269 11.3266 54.2729 10.1406 54.7651 9.10881C55.2573 8.077 55.9422 7.27646 56.8199 6.70718C57.6975 6.13791 58.6967 5.85327 59.8174 5.85327Z" fill="#AC0014"/>
<path d="M78.2566 8.29937C77.8178 8.31716 77.4976 8.3646 77.296 8.44169C77.1003 8.51878 76.9639 8.6611 76.8868 8.86865C76.8156 9.0762 76.7801 9.40827 76.7801 9.86488V17.0787C76.7801 17.5353 76.8156 17.8673 76.8868 18.0749C76.9639 18.2824 77.1003 18.4248 77.296 18.5018C77.4976 18.5789 77.8178 18.6264 78.2566 18.6442V19.0089C77.7526 18.9733 76.9757 18.9555 75.9261 18.9555C74.9536 18.9555 74.1827 18.9733 73.6135 19.0089V18.6442C74.0523 18.6264 74.3695 18.5789 74.5652 18.5018C74.7668 18.4248 74.9032 18.2824 74.9744 18.0749C75.0515 17.8673 75.09 17.5353 75.09 17.0787V13.4495H69.5307V17.0787C69.5307 17.5353 69.5663 17.8673 69.6374 18.0749C69.7145 18.2824 69.8509 18.4248 70.0466 18.5018C70.2482 18.5789 70.5684 18.6264 71.0073 18.6442V19.0089C70.4498 18.9733 69.6789 18.9555 68.6946 18.9555C67.6509 18.9555 66.8741 18.9733 66.3641 19.0089V18.6442C66.8029 18.6264 67.1202 18.5789 67.3159 18.5018C67.5175 18.4248 67.6539 18.2824 67.725 18.0749C67.8021 17.8673 67.8407 17.5353 67.8407 17.0787V9.86488C67.8407 9.40827 67.8021 9.0762 67.725 8.86865C67.6539 8.6611 67.5175 8.51878 67.3159 8.44169C67.1202 8.3646 66.8029 8.31716 66.3641 8.29937V7.93468C66.8682 7.97026 67.645 7.98805 68.6946 7.98805C69.6789 7.98805 70.4498 7.97026 71.0073 7.93468V8.29937C70.5684 8.31716 70.2482 8.3646 70.0466 8.44169C69.8509 8.51878 69.7145 8.6611 69.6374 8.86865C69.5663 9.0762 69.5307 9.40827 69.5307 9.86488V13.0848H75.09V9.86488C75.09 9.40827 75.0515 9.0762 74.9744 8.86865C74.9032 8.6611 74.7668 8.51878 74.5652 8.44169C74.3695 8.3646 74.0523 8.31716 73.6135 8.29937V7.93468C74.1827 7.97026 74.9536 7.98805 75.9261 7.98805C76.9757 7.98805 77.7526 7.97026 78.2566 7.93468V8.29937Z" fill="#AC0014"/>
<path d="M88.7615 16.8563C88.7615 17.4967 88.803 18.2142 88.886 19.0089C88.0974 18.9733 86.7661 18.9555 84.8922 18.9555C82.6507 18.9555 80.9518 18.9733 79.7954 19.0089V18.6442C80.2343 18.6264 80.5515 18.5789 80.7472 18.5018C80.9488 18.4248 81.0852 18.2824 81.1564 18.0749C81.2334 17.8673 81.272 17.5353 81.272 17.0787V9.86488C81.272 9.40827 81.2334 9.0762 81.1564 8.86865C81.0852 8.6611 80.9488 8.51878 80.7472 8.44169C80.5515 8.3646 80.2343 8.31716 79.7954 8.29937V7.93468C80.9518 7.97026 82.6507 7.98805 84.8922 7.98805C86.5941 7.98805 87.8038 7.97026 88.5214 7.93468C88.4383 8.66407 88.3968 9.31933 88.3968 9.90046C88.3968 10.3749 88.4146 10.7514 88.4502 11.0301H88.0321C87.9669 10.3541 87.8513 9.82337 87.6852 9.43792C87.5251 9.05248 87.2909 8.77674 86.9825 8.6107C86.6801 8.43873 86.2769 8.35274 85.7728 8.35274H84.4386C83.9998 8.35274 83.6796 8.38832 83.4779 8.45948C83.2822 8.52471 83.1459 8.6611 83.0688 8.86865C82.9976 9.0762 82.962 9.40827 82.962 9.86488V13.2538H84.4742C84.8596 13.2538 85.1561 13.156 85.3637 12.9603C85.5771 12.7587 85.7195 12.5393 85.7906 12.3021C85.8618 12.059 85.927 11.7565 85.9863 11.3948H86.4044C86.3629 11.8692 86.3421 12.3199 86.3421 12.7468L86.351 13.4317C86.351 13.918 86.3895 14.5999 86.4666 15.4776H86.0397C85.9922 15.104 85.924 14.7867 85.8351 14.5258C85.7521 14.2649 85.6009 14.0485 85.3814 13.8765C85.168 13.7045 84.8655 13.6185 84.4742 13.6185H82.962V17.0787C82.962 17.5353 82.9976 17.8673 83.0688 18.0749C83.1459 18.2765 83.2822 18.4129 83.4779 18.4841C83.6796 18.5552 83.9998 18.5908 84.4386 18.5908H85.7728C86.3717 18.5908 86.8491 18.4959 87.2049 18.3062C87.5607 18.1105 87.8305 17.7962 88.0143 17.3633C88.1982 16.9245 88.3257 16.3196 88.3968 15.5487H88.8149C88.7793 15.8749 88.7615 16.3107 88.7615 16.8563Z" fill="#AC0014"/>
<path d="M101.392 18.2439C101.161 18.576 100.897 18.831 100.601 19.0089C100.31 19.1808 99.9543 19.2668 99.5333 19.2668C98.5252 19.2668 97.8996 18.8043 97.6564 17.8792L97.0961 15.6021C96.9834 15.1396 96.8292 14.7867 96.6335 14.5436C96.4438 14.2945 96.2095 14.1255 95.9308 14.0366C95.6521 13.9417 95.2934 13.8943 94.8545 13.8943H93.8138V17.0787C93.8138 17.5353 93.8494 17.8673 93.9206 18.0749C93.9977 18.2824 94.134 18.4248 94.3297 18.5018C94.5314 18.5789 94.8516 18.6264 95.2904 18.6442V19.0089C94.727 18.9733 93.9562 18.9555 92.9777 18.9555C91.9281 18.9555 91.1513 18.9733 90.6472 19.0089V18.6442C91.0861 18.6264 91.4033 18.5789 91.599 18.5018C91.8006 18.4248 91.937 18.2824 92.0082 18.0749C92.0853 17.8673 92.1238 17.5353 92.1238 17.0787V9.86488C92.1238 9.40234 92.0853 9.0673 92.0082 8.85975C91.937 8.65221 91.8036 8.51285 91.6079 8.44169C91.4122 8.3646 91.092 8.31716 90.6472 8.29937V7.93468C91.1513 7.97026 91.8925 7.98805 92.871 7.98805C93.0785 7.98805 93.6982 7.97916 94.73 7.96137L95.4416 7.95247C96.3489 7.95247 97.1168 8.07107 97.7454 8.30827C98.3799 8.54547 98.8543 8.87161 99.1686 9.28671C99.4888 9.69588 99.6489 10.1673 99.6489 10.701C99.6489 11.1457 99.5362 11.5786 99.3109 11.9997C99.0856 12.4148 98.7001 12.7854 98.1546 13.1115C97.6149 13.4317 96.9033 13.6452 96.0198 13.752C96.2273 13.7579 96.4349 13.7786 96.6424 13.8142C97.2888 13.915 97.7988 14.1107 98.1723 14.4013C98.5519 14.6919 98.8187 15.1603 98.9729 15.8067L99.3732 17.4611C99.474 17.8881 99.5807 18.1905 99.6934 18.3684C99.806 18.5404 99.9543 18.6264 100.138 18.6264C100.441 18.6264 100.776 18.4188 101.143 18.0037L101.392 18.2439ZM94.9791 8.29937C94.6529 8.29937 94.4068 8.34385 94.2408 8.4328C94.0807 8.51582 93.968 8.66703 93.9028 8.88644C93.8435 9.10585 93.8138 9.43199 93.8138 9.86488V13.5296H95.0413C95.7707 13.5296 96.34 13.4199 96.7492 13.2005C97.1583 12.9751 97.44 12.6727 97.5942 12.2932C97.7483 11.9077 97.8254 11.4452 97.8254 10.9056C97.8254 10.028 97.6031 9.37566 97.1583 8.9487C96.7195 8.51582 95.9931 8.29937 94.9791 8.29937Z" fill="#AC0014"/>
<path d="M113.089 8.29937C112.668 8.31716 112.354 8.37943 112.146 8.48617C111.945 8.58698 111.805 8.75598 111.728 8.99318C111.651 9.23038 111.613 9.58024 111.613 10.0428V19.0978H111.195L103.91 9.01097V16.8919C103.91 17.3603 103.951 17.7132 104.034 17.9504C104.117 18.1876 104.271 18.3595 104.497 18.4663C104.728 18.5671 105.084 18.6264 105.564 18.6442V19.0089C105.131 18.9733 104.511 18.9555 103.705 18.9555C102.982 18.9555 102.418 18.9733 102.015 19.0089V18.6442C102.436 18.6264 102.747 18.5671 102.949 18.4663C103.156 18.3595 103.299 18.1876 103.376 17.9504C103.453 17.7132 103.492 17.3603 103.492 16.8919V9.86488C103.492 9.40827 103.453 9.0762 103.376 8.86865C103.305 8.6611 103.168 8.51878 102.967 8.44169C102.771 8.3646 102.454 8.31716 102.015 8.29937V7.93468C102.412 7.97026 102.976 7.98805 103.705 7.98805C104.375 7.98805 104.935 7.97026 105.386 7.93468L111.195 16.0202V10.0428C111.195 9.57431 111.153 9.22445 111.07 8.99318C110.993 8.75598 110.839 8.58698 110.607 8.48617C110.376 8.37943 110.02 8.31716 109.54 8.29937V7.93468C109.973 7.97026 110.593 7.98805 111.399 7.98805C112.128 7.98805 112.692 7.97026 113.089 7.93468V8.29937Z" fill="#AC0014"/>
<path d="M122.598 8.00584C123.292 8.00584 123.76 7.98212 124.003 7.93468V8.31716C123.796 8.37053 123.606 8.48913 123.434 8.67296C123.262 8.85086 123.063 9.14439 122.838 9.55356L119.974 14.6681V17.0787C119.974 17.5353 120.009 17.8673 120.081 18.0749C120.158 18.2824 120.294 18.4248 120.49 18.5018C120.691 18.5789 121.012 18.6264 121.45 18.6442V19.0089C120.893 18.9733 120.122 18.9555 119.138 18.9555C118.094 18.9555 117.317 18.9733 116.807 19.0089V18.6442C117.246 18.6264 117.563 18.5789 117.759 18.5018C117.961 18.4248 118.097 18.2824 118.168 18.0749C118.245 17.8673 118.284 17.5353 118.284 17.0787V15.1929L114.77 9.34008C114.533 8.9487 114.34 8.68779 114.192 8.55733C114.044 8.42687 113.884 8.34681 113.712 8.31716V7.93468C113.854 7.94654 113.958 7.95247 114.023 7.95247C114.592 7.98805 115.022 8.00584 115.313 8.00584C116.155 8.00584 117.006 7.98212 117.866 7.93468V8.31716C117.445 8.31716 117.124 8.34978 116.905 8.41501C116.686 8.48024 116.576 8.63145 116.576 8.86865C116.576 9.08213 116.683 9.36676 116.896 9.72256L119.654 14.3034L121.913 10.3363C122.186 9.85006 122.322 9.45868 122.322 9.16218C122.322 8.65221 121.898 8.37053 121.05 8.31716V7.93468C121.507 7.98212 122.023 8.00584 122.598 8.00584Z" fill="#AC0014"/>
<path d="M128.771 7.67673C129.144 7.67673 129.465 7.70934 129.732 7.77457C130.004 7.83387 130.23 7.91096 130.408 8.00584C130.585 8.09479 130.781 8.21043 130.995 8.35274C131.279 8.52471 131.487 8.6107 131.617 8.6107C131.73 8.6107 131.816 8.54547 131.875 8.41501C131.934 8.28455 131.982 8.07997 132.018 7.80126H132.436C132.376 8.43576 132.347 9.55356 132.347 11.1546H131.929C131.881 10.5972 131.745 10.0843 131.519 9.61582C131.3 9.14143 130.974 8.75895 130.541 8.46838C130.114 8.17188 129.58 8.02363 128.94 8.02363C128.513 8.02363 128.13 8.10369 127.792 8.26379C127.454 8.41797 127.191 8.63145 127.001 8.90423C126.811 9.17701 126.716 9.48536 126.716 9.8293C126.716 10.2088 126.811 10.5379 127.001 10.8166C127.191 11.0894 127.434 11.3266 127.73 11.5282C128.027 11.7239 128.451 11.973 129.002 12.2754C129.269 12.4118 129.465 12.5185 129.589 12.5956C130.342 12.9929 130.947 13.3517 131.404 13.6719C131.866 13.9921 132.234 14.3568 132.507 14.766C132.785 15.1692 132.925 15.6377 132.925 16.1714C132.925 16.8355 132.759 17.4018 132.427 17.8703C132.095 18.3328 131.644 18.6827 131.075 18.9199C130.511 19.1512 129.883 19.2668 129.189 19.2668C128.608 19.2668 128.13 19.2045 127.757 19.08C127.383 18.9614 127.03 18.7983 126.698 18.5908C126.426 18.4188 126.218 18.3328 126.076 18.3328C125.963 18.3328 125.877 18.3981 125.818 18.5285C125.758 18.6531 125.711 18.8547 125.675 19.1334H125.257C125.305 18.5404 125.329 17.2062 125.329 15.1307H125.747C125.83 16.2574 126.132 17.1676 126.654 17.8614C127.176 18.5552 127.979 18.9021 129.064 18.9021C129.45 18.9021 129.812 18.828 130.15 18.6797C130.494 18.5315 130.772 18.3032 130.986 17.9948C131.199 17.6865 131.306 17.301 131.306 16.8385C131.306 16.4353 131.187 16.0795 130.95 15.7711C130.719 15.4627 130.41 15.187 130.025 14.9439C129.64 14.6948 129.1 14.3924 128.406 14.0366C127.76 13.7045 127.22 13.3873 126.787 13.0848C126.36 12.7765 126.013 12.4118 125.747 11.9908C125.48 11.5697 125.346 11.0805 125.346 10.5231C125.346 9.91825 125.503 9.40234 125.818 8.97539C126.132 8.5425 126.547 8.21932 127.063 8.00584C127.585 7.78643 128.154 7.67673 128.771 7.67673Z" fill="#AC0014"/>
<path d="M146.516 8.29937C146.077 8.31716 145.757 8.3646 145.556 8.44169C145.36 8.51878 145.224 8.6611 145.146 8.86865C145.075 9.0762 145.04 9.40827 145.04 9.86488V17.0787C145.04 17.5353 145.075 17.8673 145.146 18.0749C145.224 18.2824 145.36 18.4248 145.556 18.5018C145.757 18.5789 146.077 18.6264 146.516 18.6442V19.0089C146.012 18.9733 145.235 18.9555 144.186 18.9555C143.213 18.9555 142.442 18.9733 141.873 19.0089V18.6442C142.312 18.6264 142.629 18.5789 142.825 18.5018C143.026 18.4248 143.163 18.2824 143.234 18.0749C143.311 17.8673 143.35 17.5353 143.35 17.0787V13.4495H137.79V17.0787C137.79 17.5353 137.826 17.8673 137.897 18.0749C137.974 18.2824 138.111 18.4248 138.306 18.5018C138.508 18.5789 138.828 18.6264 139.267 18.6442V19.0089C138.709 18.9733 137.939 18.9555 136.954 18.9555C135.911 18.9555 135.134 18.9733 134.624 19.0089V18.6442C135.063 18.6264 135.38 18.5789 135.575 18.5018C135.777 18.4248 135.913 18.2824 135.985 18.0749C136.062 17.8673 136.1 17.5353 136.1 17.0787V9.86488C136.1 9.40827 136.062 9.0762 135.985 8.86865C135.913 8.6611 135.777 8.51878 135.575 8.44169C135.38 8.3646 135.063 8.31716 134.624 8.29937V7.93468C135.128 7.97026 135.905 7.98805 136.954 7.98805C137.939 7.98805 138.709 7.97026 139.267 7.93468V8.29937C138.828 8.31716 138.508 8.3646 138.306 8.44169C138.111 8.51878 137.974 8.6611 137.897 8.86865C137.826 9.0762 137.79 9.40827 137.79 9.86488V13.0848H143.35V9.86488C143.35 9.40827 143.311 9.0762 143.234 8.86865C143.163 8.6611 143.026 8.51878 142.825 8.44169C142.629 8.3646 142.312 8.31716 141.873 8.29937V7.93468C142.442 7.97026 143.213 7.98805 144.186 7.98805C145.235 7.98805 146.012 7.97026 146.516 7.93468V8.29937Z" fill="#AC0014"/>
<path d="M153.703 7.67673C154.824 7.67673 155.805 7.90207 156.648 8.35274C157.49 8.79749 158.142 9.44682 158.604 10.3007C159.067 11.1546 159.298 12.1746 159.298 13.3606C159.298 14.5229 159.058 15.5517 158.578 16.4471C158.103 17.3366 157.439 18.0304 156.585 18.5285C155.737 19.0207 154.771 19.2668 153.686 19.2668C152.565 19.2668 151.583 19.0444 150.741 18.5997C149.905 18.149 149.256 17.4967 148.793 16.6428C148.331 15.7889 148.1 14.7689 148.1 13.583C148.1 12.4207 148.337 11.3918 148.811 10.4964C149.291 9.601 149.956 8.90719 150.804 8.41501C151.652 7.92282 152.618 7.67673 153.703 7.67673ZM153.632 8.00584C152.891 8.00584 152.239 8.24007 151.675 8.70854C151.112 9.17108 150.676 9.82041 150.368 10.6565C150.065 11.4867 149.914 12.4385 149.914 13.5118C149.914 14.591 150.083 15.5428 150.421 16.3671C150.765 17.1913 151.228 17.8258 151.809 18.2706C152.396 18.7153 153.045 18.9377 153.757 18.9377C154.498 18.9377 155.15 18.7064 155.714 18.2439C156.277 17.7754 156.71 17.1261 157.012 16.2959C157.321 15.4598 157.475 14.5051 157.475 13.4317C157.475 12.3525 157.303 11.4007 156.959 10.5765C156.621 9.75221 156.158 9.11771 155.571 8.67296C154.99 8.22821 154.344 8.00584 153.632 8.00584Z" fill="#AC0014"/>
<path d="M170.088 7.98805C170.592 7.98805 171.001 7.97026 171.315 7.93468V8.29937C171.078 8.35867 170.876 8.45355 170.71 8.58401C170.55 8.71447 170.399 8.89533 170.257 9.1266C170.12 9.35194 169.963 9.66919 169.785 10.0784L165.792 19.0978H165.498L161.237 9.46461C160.911 8.71151 160.493 8.32309 159.983 8.29937V7.93468C160.469 7.97026 161.119 7.98805 161.931 7.98805C162.975 7.98805 163.752 7.97026 164.262 7.93468V8.29937C163.805 8.31716 163.473 8.3735 163.265 8.46838C163.064 8.56326 162.963 8.7293 162.963 8.96649C162.963 9.17404 163.043 9.46164 163.203 9.8293L166.334 16.9008L169.056 10.8433C169.352 10.1792 169.501 9.6603 169.501 9.28671C169.501 8.9487 169.382 8.70558 169.145 8.55733C168.908 8.40315 168.549 8.31716 168.069 8.29937V7.93468C168.43 7.97026 169.103 7.98805 170.088 7.98805Z" fill="#AC0014"/>
<path d="M172.392 16.9363C172.86 16.9363 173.219 17.1291 173.468 17.5145C173.675 17.8347 173.779 18.235 173.779 18.7153C173.779 19.3261 173.622 19.8717 173.308 20.352C172.999 20.8382 172.531 21.2296 171.902 21.5261L171.733 21.197C172.113 21.0369 172.439 20.7849 172.712 20.4409C172.985 20.1029 173.121 19.759 173.121 19.4091C173.121 19.2609 173.103 19.1334 173.068 19.0266C172.86 19.1868 172.635 19.2668 172.392 19.2668C172.059 19.2668 171.781 19.163 171.555 18.9555C171.336 18.742 171.226 18.4574 171.226 18.1016C171.226 17.7695 171.339 17.4938 171.564 17.2743C171.79 17.049 172.065 16.9363 172.392 16.9363Z" fill="#AC0014"/>
<path d="M184.809 6.47592C184.37 6.49371 184.05 6.54115 183.848 6.61823C183.653 6.69532 183.516 6.83764 183.439 7.04519C183.368 7.25274 183.332 7.58482 183.332 8.04142V17.0787C183.332 17.5353 183.368 17.8673 183.439 18.0749C183.516 18.2765 183.653 18.4129 183.848 18.4841C184.05 18.5552 184.37 18.5908 184.809 18.5908H186.143C186.902 18.5908 187.477 18.4841 187.869 18.2706C188.266 18.0571 188.551 17.7161 188.723 17.2477C188.901 16.7792 189.037 16.0913 189.132 15.184H189.55C189.514 15.5636 189.496 16.0617 189.496 16.6784C189.496 17.3663 189.538 18.1431 189.621 19.0089C188.797 18.9733 187.406 18.9555 185.449 18.9555C183.119 18.9555 181.358 18.9733 180.166 19.0089V18.6442C180.605 18.6264 180.922 18.5789 181.117 18.5018C181.319 18.4248 181.455 18.2824 181.527 18.0749C181.604 17.8673 181.642 17.5353 181.642 17.0787V8.04142C181.642 7.58482 181.604 7.25274 181.527 7.04519C181.455 6.83764 181.319 6.69532 181.117 6.61823C180.922 6.54115 180.605 6.49371 180.166 6.47592V6.11122C180.67 6.1468 181.447 6.16459 182.496 6.16459C183.481 6.16459 184.251 6.1468 184.809 6.11122V6.47592Z" fill="#AC0014"/>
<path d="M201.638 8.29937C201.217 8.31716 200.903 8.37943 200.695 8.48617C200.494 8.58698 200.354 8.75598 200.277 8.99318C200.2 9.23038 200.161 9.58024 200.161 10.0428V14.0722C200.161 14.9083 200.105 15.6229 199.992 16.2159C199.88 16.8029 199.69 17.3159 199.423 17.7547C199.133 18.2172 198.709 18.5849 198.151 18.8576C197.594 19.1304 196.965 19.2668 196.266 19.2668C195.02 19.2668 194.063 19 193.392 18.4663C193.031 18.1401 192.752 17.7962 192.556 17.4345C192.367 17.0668 192.233 16.628 192.156 16.118C192.079 15.6021 192.04 14.9379 192.04 14.1255V9.86488C192.04 9.40827 192.002 9.0762 191.925 8.86865C191.854 8.6611 191.717 8.51878 191.516 8.44169C191.32 8.3646 191.003 8.31716 190.564 8.29937V7.93468C191.08 7.97026 191.857 7.98805 192.894 7.98805C193.873 7.98805 194.644 7.97026 195.207 7.93468V8.29937C194.768 8.31716 194.451 8.3646 194.255 8.44169C194.06 8.51878 193.923 8.6611 193.846 8.86865C193.775 9.0762 193.739 9.40827 193.739 9.86488V14.4369C193.739 15.3382 193.799 16.0824 193.917 16.6695C194.042 17.2566 194.3 17.731 194.691 18.0927C195.088 18.4485 195.67 18.6264 196.435 18.6264C197.656 18.6264 198.513 18.2469 199.005 17.4878C199.497 16.7229 199.743 15.6525 199.743 14.2768V10.0428C199.743 9.59803 199.69 9.2541 199.583 9.01097C199.483 8.76784 199.314 8.59291 199.076 8.48617C198.845 8.37943 198.516 8.31716 198.089 8.29937V7.93468C198.522 7.97026 199.142 7.98805 199.948 7.98805C200.677 7.98805 201.241 7.97026 201.638 7.93468V8.29937Z" fill="#AC0014"/>
<path d="M212.41 17.5323C212.831 18.066 213.305 18.4366 213.833 18.6442V19.0089C213.246 18.9733 212.567 18.9555 211.796 18.9555C210.966 18.9555 210.192 18.9733 209.474 19.0089V18.6442C209.872 18.6323 210.153 18.5997 210.319 18.5463C210.486 18.487 210.569 18.401 210.569 18.2884C210.569 18.1816 210.491 18.0275 210.337 17.8258L207.909 14.4547C207.654 14.1048 207.396 13.8587 207.135 13.7164C206.874 13.5681 206.507 13.4851 206.032 13.4673V17.0787C206.032 17.5353 206.068 17.8673 206.139 18.0749C206.216 18.2824 206.352 18.4248 206.548 18.5018C206.75 18.5789 207.07 18.6264 207.509 18.6442V19.0089C206.951 18.9733 206.18 18.9555 205.196 18.9555C204.152 18.9555 203.376 18.9733 202.866 19.0089V18.6442C203.304 18.6264 203.622 18.5789 203.817 18.5018C204.019 18.4248 204.155 18.2824 204.226 18.0749C204.304 17.8673 204.342 17.5353 204.342 17.0787V9.86488C204.342 9.40827 204.304 9.0762 204.226 8.86865C204.155 8.6611 204.019 8.51878 203.817 8.44169C203.622 8.3646 203.304 8.31716 202.866 8.29937V7.93468C203.37 7.97026 204.146 7.98805 205.196 7.98805C206.18 7.98805 206.951 7.97026 207.509 7.93468V8.29937C207.07 8.31716 206.75 8.3646 206.548 8.44169C206.352 8.51878 206.216 8.6611 206.139 8.86865C206.068 9.0762 206.032 9.40827 206.032 9.86488V13.1649C206.465 13.1352 206.865 13.0344 207.233 12.8625C207.601 12.6905 208.016 12.3821 208.478 11.9374L210.649 9.72256C210.963 9.42606 211.12 9.15329 211.12 8.90423C211.12 8.7204 211.028 8.57215 210.844 8.45948C210.666 8.34681 210.4 8.28751 210.044 8.28158V7.93468C210.702 7.97026 211.419 7.98805 212.196 7.98805C212.712 7.98805 213.142 7.97026 213.486 7.93468V8.28158C213.19 8.33495 212.935 8.40611 212.721 8.49506C212.508 8.58401 212.291 8.71151 212.072 8.87754C211.858 9.04358 211.589 9.28078 211.262 9.58914L208.389 12.4622L212.41 17.5323Z" fill="#AC0014"/>
<path d="M219.988 7.67673C221.109 7.67673 222.09 7.90207 222.932 8.35274C223.775 8.79749 224.427 9.44682 224.889 10.3007C225.352 11.1546 225.583 12.1746 225.583 13.3606C225.583 14.5229 225.343 15.5517 224.863 16.4471C224.388 17.3366 223.724 18.0304 222.87 18.5285C222.022 19.0207 221.056 19.2668 219.97 19.2668C218.85 19.2668 217.868 19.0444 217.026 18.5997C216.19 18.149 215.541 17.4967 215.078 16.6428C214.616 15.7889 214.384 14.7689 214.384 13.583C214.384 12.4207 214.622 11.3918 215.096 10.4964C215.576 9.601 216.241 8.90719 217.089 8.41501C217.937 7.92282 218.903 7.67673 219.988 7.67673ZM219.917 8.00584C219.176 8.00584 218.524 8.24007 217.96 8.70854C217.397 9.17108 216.961 9.82041 216.653 10.6565C216.35 11.4867 216.199 12.4385 216.199 13.5118C216.199 14.591 216.368 15.5428 216.706 16.3671C217.05 17.1913 217.513 17.8258 218.094 18.2706C218.681 18.7153 219.33 18.9377 220.042 18.9377C220.783 18.9377 221.435 18.7064 221.999 18.2439C222.562 17.7754 222.995 17.1261 223.297 16.2959C223.606 15.4598 223.76 14.5051 223.76 13.4317C223.76 12.3525 223.588 11.4007 223.244 10.5765C222.906 9.75221 222.443 9.11771 221.856 8.67296C221.275 8.22821 220.629 8.00584 219.917 8.00584Z" fill="#AC0014"/>
<path d="M235.154 8.00584C235.848 8.00584 236.316 7.98212 236.559 7.93468V8.31716C236.352 8.37053 236.162 8.48913 235.99 8.67296C235.818 8.85086 235.62 9.14439 235.394 9.55356L232.53 14.6681V17.0787C232.53 17.5353 232.566 17.8673 232.637 18.0749C232.714 18.2824 232.85 18.4248 233.046 18.5018C233.248 18.5789 233.568 18.6264 234.007 18.6442V19.0089C233.449 18.9733 232.678 18.9555 231.694 18.9555C230.65 18.9555 229.873 18.9733 229.364 19.0089V18.6442C229.802 18.6264 230.12 18.5789 230.315 18.5018C230.517 18.4248 230.653 18.2824 230.724 18.0749C230.802 17.8673 230.84 17.5353 230.84 17.0787V15.1929L227.327 9.34008C227.089 8.9487 226.897 8.68779 226.748 8.55733C226.6 8.42687 226.44 8.34681 226.268 8.31716V7.93468C226.41 7.94654 226.514 7.95247 226.579 7.95247C227.149 7.98805 227.579 8.00584 227.869 8.00584C228.711 8.00584 229.562 7.98212 230.422 7.93468V8.31716C230.001 8.31716 229.681 8.34978 229.461 8.41501C229.242 8.48024 229.132 8.63145 229.132 8.86865C229.132 9.08213 229.239 9.36676 229.452 9.72256L232.21 14.3034L234.469 10.3363C234.742 9.85006 234.878 9.45868 234.878 9.16218C234.878 8.65221 234.454 8.37053 233.606 8.31716V7.93468C234.063 7.98212 234.579 8.00584 235.154 8.00584Z" fill="#AC0014"/>
<path d="M245.357 17.4789C245.689 18.232 246.11 18.6204 246.62 18.6442V19.0089C246.122 18.9733 245.472 18.9555 244.672 18.9555C243.628 18.9555 242.848 18.9733 242.332 19.0089V18.6442C242.789 18.6264 243.121 18.57 243.329 18.4752C243.536 18.3803 243.64 18.2142 243.64 17.977C243.64 17.7576 243.557 17.47 243.391 17.1142L242.475 15.0417H238.027L237.413 16.4026C237.212 16.8711 237.111 17.2595 237.111 17.5679C237.111 18.2083 237.582 18.5671 238.525 18.6442V19.0089C238.164 18.9733 237.612 18.9555 236.871 18.9555C236.13 18.9555 235.602 18.9733 235.288 19.0089V18.6442C235.608 18.5611 235.886 18.3773 236.124 18.0927C236.361 17.8021 236.58 17.4226 236.782 16.9541L240.802 7.84573H241.096L245.357 17.4789ZM240.26 10.0428L238.187 14.677H242.315L240.26 10.0428Z" fill="#AC0014"/>
<path d="M258.397 8.29937C257.975 8.31716 257.661 8.37943 257.454 8.48617C257.252 8.58698 257.113 8.75598 257.036 8.99318C256.959 9.23038 256.92 9.58024 256.92 10.0428V19.0978H256.502L249.217 9.01097V16.8919C249.217 17.3603 249.258 17.7132 249.341 17.9504C249.425 18.1876 249.579 18.3595 249.804 18.4663C250.035 18.5671 250.391 18.6264 250.871 18.6442V19.0089C250.439 18.9733 249.819 18.9555 249.012 18.9555C248.289 18.9555 247.726 18.9733 247.322 19.0089V18.6442C247.743 18.6264 248.055 18.5671 248.256 18.4663C248.464 18.3595 248.606 18.1876 248.683 17.9504C248.76 17.7132 248.799 17.3603 248.799 16.8919V9.86488C248.799 9.40827 248.76 9.0762 248.683 8.86865C248.612 8.6611 248.476 8.51878 248.274 8.44169C248.078 8.3646 247.761 8.31716 247.322 8.29937V7.93468C247.72 7.97026 248.283 7.98805 249.012 7.98805C249.682 7.98805 250.243 7.97026 250.694 7.93468L256.502 16.0202V10.0428C256.502 9.57431 256.46 9.22445 256.377 8.99318C256.3 8.75598 256.146 8.58698 255.915 8.48617C255.684 8.37943 255.328 8.31716 254.847 8.29937V7.93468C255.28 7.97026 255.9 7.98805 256.706 7.98805C257.436 7.98805 257.999 7.97026 258.397 7.93468V8.29937Z" fill="#AC0014"/>
<path d="M265.388 7.67673C266.509 7.67673 267.49 7.90207 268.332 8.35274C269.174 8.79749 269.826 9.44682 270.289 10.3007C270.752 11.1546 270.983 12.1746 270.983 13.3606C270.983 14.5229 270.743 15.5517 270.262 16.4471C269.788 17.3366 269.124 18.0304 268.27 18.5285C267.422 19.0207 266.455 19.2668 265.37 19.2668C264.249 19.2668 263.268 19.0444 262.426 18.5997C261.59 18.149 260.94 17.4967 260.478 16.6428C260.015 15.7889 259.784 14.7689 259.784 13.583C259.784 12.4207 260.021 11.3918 260.496 10.4964C260.976 9.601 261.64 8.90719 262.488 8.41501C263.336 7.92282 264.303 7.67673 265.388 7.67673ZM265.317 8.00584C264.576 8.00584 263.923 8.24007 263.36 8.70854C262.797 9.17108 262.361 9.82041 262.052 10.6565C261.75 11.4867 261.599 12.4385 261.599 13.5118C261.599 14.591 261.768 15.5428 262.106 16.3671C262.45 17.1913 262.912 17.8258 263.493 18.2706C264.08 18.7153 264.73 18.9377 265.441 18.9377C266.183 18.9377 266.835 18.7064 267.398 18.2439C267.962 17.7754 268.394 17.1261 268.697 16.2959C269.005 15.4598 269.159 14.5051 269.159 13.4317C269.159 12.3525 268.987 11.4007 268.643 10.5765C268.305 9.75221 267.843 9.11771 267.256 8.67296C266.675 8.22821 266.028 8.00584 265.317 8.00584Z" fill="#AC0014"/>
<path d="M281.772 7.98805C282.276 7.98805 282.686 7.97026 283 7.93468V8.29937C282.763 8.35867 282.561 8.45355 282.395 8.58401C282.235 8.71447 282.084 8.89533 281.941 9.1266C281.805 9.35194 281.648 9.66919 281.47 10.0784L277.476 19.0978H277.183L272.922 9.46461C272.596 8.71151 272.178 8.32309 271.668 8.29937V7.93468C272.154 7.97026 272.803 7.98805 273.616 7.98805C274.659 7.98805 275.436 7.97026 275.946 7.93468V8.29937C275.49 8.31716 275.158 8.3735 274.95 8.46838C274.748 8.56326 274.648 8.7293 274.648 8.96649C274.648 9.17404 274.728 9.46164 274.888 9.8293L278.019 16.9008L280.741 10.8433C281.037 10.1792 281.185 9.6603 281.185 9.28671C281.185 8.9487 281.067 8.70558 280.83 8.55733C280.592 8.40315 280.234 8.31716 279.753 8.29937V7.93468C280.115 7.97026 280.788 7.98805 281.772 7.98805Z" fill="#AC0014"/>
<path d="M65.2789 28.0302C65.783 28.0302 66.2366 28.131 66.6399 28.3327C67.0431 28.5284 67.3603 28.813 67.5916 29.1866C67.8229 29.5542 67.9385 29.9901 67.9385 30.4941C67.9385 31.0753 67.7814 31.5823 67.4671 32.0152C67.1528 32.4421 66.7347 32.7861 66.2129 33.047C65.7681 33.2605 64.8668 33.5777 63.5088 33.9987C64.1908 34.2834 64.6919 34.6955 65.0121 35.2351C65.3382 35.7747 65.5013 36.3915 65.5013 37.0853C65.5013 37.8384 65.276 38.55 64.8253 39.22C64.3805 39.8842 63.7371 40.4209 62.8951 40.83C62.053 41.2392 61.0687 41.4438 59.942 41.4438C58.8805 41.4438 57.8991 41.2599 56.9978 40.8923C56.1023 40.5187 55.3848 39.988 54.8452 39.3001C54.3115 38.6122 54.0446 37.8147 54.0446 36.9074C54.0446 36.1068 54.2433 35.4308 54.6406 34.8793C55.0379 34.3278 55.4886 33.9098 55.9926 33.6251C56.5026 33.3346 56.974 33.133 57.4069 33.0203C56.8139 32.7653 56.3603 32.4273 56.046 32.0063C55.7317 31.5852 55.5746 31.1405 55.5746 30.672C55.5746 30.2688 55.6932 29.8952 55.9304 29.5513C56.1676 29.2014 56.5174 28.9227 56.98 28.7151C57.4425 28.5017 57.9999 28.3949 58.6522 28.3949C59.4646 28.3949 60.0962 28.5788 60.5468 28.9464C60.7722 29.1302 60.9412 29.3348 61.0538 29.5602C61.1665 29.7796 61.2228 29.9931 61.2228 30.2006C61.2228 30.4912 61.1191 30.7254 60.9115 30.9033C60.704 31.0812 60.4668 31.1701 60.1999 31.1701C59.939 31.1701 59.7137 31.0871 59.5239 30.9211C59.3401 30.755 59.2482 30.5327 59.2482 30.254C59.2482 29.9931 59.3371 29.7677 59.515 29.578C59.6988 29.3882 59.9331 29.2815 60.2177 29.2577C60.1644 29.0976 60.0102 28.9612 59.7552 28.8486C59.5002 28.73 59.1918 28.6707 58.8301 28.6707C58.1956 28.6707 57.6856 28.8604 57.3002 29.2399C56.9147 29.6195 56.722 30.1532 56.722 30.841C56.722 31.6534 57.0304 32.3443 57.6471 32.9135C58.0681 32.8424 58.4447 32.8068 58.7767 32.8068C59.0021 32.8068 59.18 32.8424 59.3104 32.9135C59.4409 32.9847 59.5061 33.0885 59.5061 33.2249C59.5061 33.3316 59.4587 33.4176 59.3638 33.4828C59.2749 33.5421 59.1533 33.5718 58.9991 33.5718C58.8212 33.5718 58.6315 33.5392 58.4298 33.4739C58.2282 33.4087 58.0592 33.3464 57.9228 33.2871C57.7864 33.2219 57.7005 33.1834 57.6649 33.1715C56.0875 33.64 55.2988 34.6362 55.2988 36.1602C55.2988 36.9726 55.5123 37.6753 55.9393 38.2683C56.3662 38.8613 56.9503 39.3149 57.6916 39.6292C58.4328 39.9376 59.263 40.0918 60.1821 40.0918C61.0479 40.0918 61.8455 39.9583 62.5749 39.6915C63.3043 39.4187 63.8854 39.0303 64.3183 38.5262C64.7512 38.0163 64.9676 37.4262 64.9676 36.7562C64.9676 36.2818 64.8371 35.7955 64.5762 35.2974C64.3212 34.7933 63.8409 34.399 63.1353 34.1144C62.1094 34.4346 61.4096 34.6658 61.0361 34.8082C60.5261 35.0039 60.1317 35.2262 59.853 35.4753C59.5743 35.7243 59.435 36.0297 59.435 36.3915C59.435 36.688 59.521 36.9489 59.6929 37.1742C59.8708 37.3936 60.0902 37.5626 60.3511 37.6812C60.6121 37.7939 60.8641 37.8502 61.1072 37.8502C61.3148 37.8502 61.5401 37.8147 61.7832 37.7435C62.0323 37.6723 62.1716 37.5745 62.2013 37.45C61.97 37.4084 61.7684 37.3136 61.5964 37.1653C61.4304 37.0171 61.3474 36.8036 61.3474 36.5249C61.3474 36.2402 61.4423 36.0119 61.632 35.84C61.8218 35.6621 62.059 35.5731 62.3436 35.5731C62.6342 35.5731 62.8684 35.665 63.0463 35.8489C63.2242 36.0268 63.3132 36.264 63.3132 36.5605C63.3132 36.8866 63.2034 37.1683 62.984 37.4055C62.7646 37.6427 62.4859 37.8235 62.1479 37.9481C61.8158 38.0667 61.4808 38.126 61.1428 38.126C60.7751 38.126 60.4164 38.0489 60.0665 37.8947C59.7226 37.7405 59.4379 37.5033 59.2126 37.1831C58.9932 36.8629 58.8835 36.4656 58.8835 35.9912C58.8835 35.3745 59.091 34.8497 59.5061 34.4168C59.9272 33.9839 60.5587 33.6222 61.4007 33.3316C61.6617 33.2486 62.1005 33.1181 62.7172 32.9402C64.1522 32.5429 65.1959 32.196 65.8482 31.8995C66.4234 31.6268 66.8266 31.351 67.0579 31.0723C67.2951 30.7877 67.4137 30.4793 67.4137 30.1472C67.4137 29.8092 67.3159 29.5009 67.1202 29.2222C66.9245 28.9375 66.6636 28.7151 66.3374 28.555C66.0172 28.389 65.6703 28.306 65.2967 28.306C64.9884 28.306 64.8075 28.3594 64.7541 28.4661C64.9142 28.5491 65.0388 28.6707 65.1277 28.8308C65.2167 28.985 65.2611 29.1451 65.2611 29.3111C65.2611 29.5602 65.1603 29.7707 64.9587 29.9426C64.7571 30.1146 64.5169 30.2006 64.2382 30.2006C63.9773 30.2006 63.752 30.1235 63.5622 29.9693C63.3725 29.8092 63.2776 29.5839 63.2776 29.2933C63.2776 28.9968 63.3784 28.7537 63.58 28.5639C63.7816 28.3742 64.0336 28.2378 64.3361 28.1548C64.6444 28.0717 64.9587 28.0302 65.2789 28.0302Z" fill="#AC0014"/>
<path d="M76.7712 39.2556C76.7712 39.7122 76.8186 40.0443 76.9135 40.2519C77.0084 40.4594 77.1803 40.6017 77.4294 40.6788C77.6784 40.7559 78.0728 40.8033 78.6124 40.8211V41.1858C77.9838 41.1502 77.0914 41.1325 75.935 41.1325C74.8914 41.1325 74.1145 41.1502 73.6046 41.1858V40.8211C74.0434 40.8033 74.3606 40.7559 74.5563 40.6788C74.7579 40.6017 74.8943 40.4594 74.9655 40.2519C75.0426 40.0443 75.0811 39.7122 75.0811 39.2556V30.2184C75.0811 29.7618 75.0426 29.4297 74.9655 29.2222C74.8943 29.0146 74.7579 28.8723 74.5563 28.7952C74.3606 28.7181 74.0434 28.6707 73.6046 28.6529V28.2882C74.1086 28.3238 74.8499 28.3416 75.8283 28.3416C76.0418 28.3416 76.7 28.3327 77.803 28.3149L78.5768 28.306C79.5316 28.306 80.338 28.4572 80.9963 28.7596C81.6545 29.0561 82.1467 29.4742 82.4728 30.0138C82.8049 30.5534 82.9709 31.182 82.9709 31.8995C82.9709 32.5637 82.8227 33.2041 82.5262 33.8208C82.2297 34.4375 81.7227 34.9505 81.0051 35.3597C80.2936 35.7688 79.3507 35.9734 78.1766 35.9734H76.7712V39.2556ZM78.1232 28.6529C77.7437 28.6529 77.459 28.6974 77.2693 28.7863C77.0795 28.8693 76.9491 29.0205 76.8779 29.2399C76.8067 29.4594 76.7712 29.7855 76.7712 30.2184V35.6087H77.9987C79.1847 35.6087 80.006 35.2915 80.4626 34.657C80.9192 34.0224 81.1475 33.1685 81.1475 32.0952C81.1475 31.3125 81.0467 30.6691 80.845 30.165C80.6434 29.661 80.3202 29.2844 79.8755 29.0354C79.4367 28.7804 78.8526 28.6529 78.1232 28.6529Z" fill="#AC0014"/>
<path d="M92.364 39.6559C92.696 40.409 93.1171 40.7974 93.627 40.8211V41.1858C93.1289 41.1502 92.4796 41.1325 91.6791 41.1325C90.6354 41.1325 89.8556 41.1502 89.3397 41.1858V40.8211C89.7963 40.8033 90.1284 40.747 90.3359 40.6521C90.5435 40.5573 90.6472 40.3912 90.6472 40.154C90.6472 39.9346 90.5642 39.647 90.3982 39.2912L89.482 37.2187H85.0345L84.4208 38.5796C84.2192 39.0481 84.1184 39.4365 84.1184 39.7449C84.1184 40.3853 84.5898 40.744 85.5327 40.8211V41.1858C85.1709 41.1502 84.6194 41.1325 83.8782 41.1325C83.137 41.1325 82.6092 41.1502 82.2949 41.1858V40.8211C82.6151 40.7381 82.8938 40.5543 83.131 40.2696C83.3682 39.9791 83.5876 39.5996 83.7893 39.1311L87.8098 30.0227H88.1033L92.364 39.6559ZM87.2672 32.2197L85.1947 36.854H89.3219L87.2672 32.2197Z" fill="#AC0014"/>
<path d="M105.075 40.4209C104.844 40.7529 104.58 41.0079 104.283 41.1858C103.993 41.3578 103.637 41.4438 103.216 41.4438C102.208 41.4438 101.582 40.9812 101.339 40.0562L100.779 37.7791C100.666 37.3165 100.512 36.9637 100.316 36.7206C100.126 36.4715 99.892 36.3025 99.6133 36.2136C99.3346 36.1187 98.9758 36.0712 98.537 36.0712H97.4963V39.2556C97.4963 39.7122 97.5319 40.0443 97.6031 40.2519C97.6802 40.4594 97.8165 40.6017 98.0122 40.6788C98.2139 40.7559 98.5341 40.8033 98.9729 40.8211V41.1858C98.4095 41.1502 97.6386 41.1325 96.6602 41.1325C95.6106 41.1325 94.8338 41.1502 94.3297 41.1858V40.8211C94.7686 40.8033 95.0858 40.7559 95.2815 40.6788C95.4831 40.6017 95.6195 40.4594 95.6907 40.2519C95.7677 40.0443 95.8063 39.7122 95.8063 39.2556V32.0418C95.8063 31.5793 95.7677 31.2443 95.6907 31.0367C95.6195 30.8292 95.4861 30.6898 95.2904 30.6187C95.0947 30.5416 94.7745 30.4941 94.3297 30.4763V30.1117C94.8338 30.1472 95.575 30.165 96.5535 30.165C96.761 30.165 97.3807 30.1561 98.4125 30.1383L99.1241 30.1294C100.031 30.1294 100.799 30.248 101.428 30.4852C102.062 30.7224 102.537 31.0486 102.851 31.4637C103.171 31.8728 103.331 32.3443 103.331 32.878C103.331 33.3227 103.219 33.7556 102.993 34.1766C102.768 34.5917 102.383 34.9623 101.837 35.2885C101.297 35.6087 100.586 35.8222 99.7023 35.9289C99.9098 35.9349 100.117 35.9556 100.325 35.9912C100.971 36.092 101.481 36.2877 101.855 36.5783C102.234 36.8688 102.501 37.3373 102.655 37.9837L103.056 39.6381C103.156 40.0651 103.263 40.3675 103.376 40.5454C103.489 40.7174 103.637 40.8033 103.821 40.8033C104.123 40.8033 104.458 40.5958 104.826 40.1807L105.075 40.4209ZM98.6616 30.4763C98.3354 30.4763 98.0893 30.5208 97.9233 30.6098C97.7632 30.6928 97.6505 30.844 97.5853 31.0634C97.526 31.2828 97.4963 31.609 97.4963 32.0418V35.7066H98.7238C99.4532 35.7066 100.022 35.5969 100.432 35.3774C100.841 35.1521 101.122 34.8497 101.277 34.4702C101.431 34.0847 101.508 33.6222 101.508 33.0826C101.508 32.2049 101.286 31.5526 100.841 31.1257C100.402 30.6928 99.6756 30.4763 98.6616 30.4763Z" fill="#AC0014"/>
<path d="M115.722 30.1117C115.633 30.8885 115.589 31.603 115.589 32.2553C115.589 32.8839 115.606 33.382 115.642 33.7497H115.224C115.153 32.9017 115.037 32.2553 114.877 31.8106C114.723 31.3599 114.468 31.0338 114.112 30.8321C113.762 30.6305 113.258 30.5297 112.6 30.5297H111.435V39.0688C111.435 39.5729 111.482 39.9435 111.577 40.1807C111.672 40.412 111.844 40.5721 112.093 40.661C112.342 40.75 112.736 40.8033 113.276 40.8211V41.1858C112.647 41.1502 111.755 41.1325 110.599 41.1325C109.389 41.1325 108.49 41.1502 107.903 41.1858V40.8211C108.443 40.8033 108.837 40.75 109.086 40.661C109.335 40.5721 109.507 40.412 109.602 40.1807C109.697 39.9435 109.745 39.5729 109.745 39.0688V30.5297H108.579C107.921 30.5297 107.417 30.6305 107.067 30.8321C106.717 31.0338 106.462 31.3599 106.302 31.8106C106.142 32.2613 106.027 32.9076 105.955 33.7497H105.537C105.573 33.3642 105.591 32.8661 105.591 32.2553C105.591 31.6208 105.549 30.9063 105.466 30.1117C106.474 30.1472 108.185 30.165 110.599 30.165C113.006 30.165 114.714 30.1472 115.722 30.1117Z" fill="#AC0014"/>
<path d="M128.175 30.4763C127.754 30.4941 127.44 30.5564 127.232 30.6631C127.03 30.7639 126.891 30.9329 126.814 31.1701C126.737 31.4073 126.698 31.7572 126.698 32.2197V41.2748H126.28L118.995 31.1879V39.0688C118.995 39.5373 119.037 39.8901 119.12 40.1273C119.203 40.3645 119.357 40.5365 119.582 40.6432C119.814 40.744 120.169 40.8033 120.65 40.8211V41.1858C120.217 41.1502 119.597 41.1325 118.791 41.1325C118.067 41.1325 117.504 41.1502 117.101 41.1858V40.8211C117.522 40.8033 117.833 40.744 118.035 40.6432C118.242 40.5365 118.385 40.3645 118.462 40.1273C118.539 39.8901 118.577 39.5373 118.577 39.0688V32.0418C118.577 31.5852 118.539 31.2532 118.462 31.0456C118.39 30.8381 118.254 30.6957 118.052 30.6187C117.857 30.5416 117.54 30.4941 117.101 30.4763V30.1117C117.498 30.1472 118.061 30.165 118.791 30.165C119.461 30.165 120.021 30.1472 120.472 30.1117L126.28 38.1971V32.2197C126.28 31.7513 126.239 31.4014 126.156 31.1701C126.079 30.9329 125.924 30.7639 125.693 30.6631C125.462 30.5564 125.106 30.4941 124.626 30.4763V30.1117C125.059 30.1472 125.678 30.165 126.485 30.165C127.214 30.165 127.778 30.1472 128.175 30.1117V30.4763Z" fill="#AC0014"/>
<path d="M138.449 39.0333C138.449 39.6737 138.49 40.3912 138.573 41.1858C137.784 41.1502 136.453 41.1325 134.579 41.1325C132.338 41.1325 130.639 41.1502 129.482 41.1858V40.8211C129.921 40.8033 130.239 40.7559 130.434 40.6788C130.636 40.6017 130.772 40.4594 130.843 40.2519C130.92 40.0443 130.959 39.7122 130.959 39.2556V32.0418C130.959 31.5852 130.92 31.2532 130.843 31.0456C130.772 30.8381 130.636 30.6957 130.434 30.6187C130.239 30.5416 129.921 30.4941 129.482 30.4763V30.1117C130.639 30.1472 132.338 30.165 134.579 30.165C136.281 30.165 137.491 30.1472 138.208 30.1117C138.125 30.841 138.084 31.4963 138.084 32.0774C138.084 32.5518 138.102 32.9284 138.137 33.2071H137.719C137.654 32.5311 137.538 32.0003 137.372 31.6149C137.212 31.2294 136.978 30.9537 136.67 30.7877C136.367 30.6157 135.964 30.5297 135.46 30.5297H134.126C133.687 30.5297 133.367 30.5653 133.165 30.6364C132.969 30.7017 132.833 30.8381 132.756 31.0456C132.685 31.2532 132.649 31.5852 132.649 32.0418V35.4308H134.161C134.547 35.4308 134.843 35.333 135.051 35.1373C135.264 34.9357 135.406 34.7163 135.478 34.4791C135.549 34.2359 135.614 33.9335 135.673 33.5718H136.091C136.05 34.0462 136.029 34.4968 136.029 34.9238L136.038 35.6087C136.038 36.095 136.077 36.7769 136.154 37.6545H135.727C135.679 37.281 135.611 36.9637 135.522 36.7028C135.439 36.4419 135.288 36.2254 135.068 36.0535C134.855 35.8815 134.553 35.7955 134.161 35.7955H132.649V39.2556C132.649 39.7122 132.685 40.0443 132.756 40.2519C132.833 40.4535 132.969 40.5899 133.165 40.661C133.367 40.7322 133.687 40.7678 134.126 40.7678H135.46C136.059 40.7678 136.536 40.6729 136.892 40.4831C137.248 40.2874 137.518 39.9732 137.701 39.5403C137.885 39.1014 138.013 38.4966 138.084 37.7257H138.502C138.466 38.0518 138.449 38.4877 138.449 39.0333Z" fill="#AC0014"/>
<path d="M151.079 40.4209C150.848 40.7529 150.584 41.0079 150.288 41.1858C149.997 41.3578 149.641 41.4438 149.22 41.4438C148.212 41.4438 147.587 40.9812 147.343 40.0562L146.783 37.7791C146.67 37.3165 146.516 36.9637 146.321 36.7206C146.131 36.4715 145.897 36.3025 145.618 36.2136C145.339 36.1187 144.98 36.0712 144.542 36.0712H143.501V39.2556C143.501 39.7122 143.536 40.0443 143.608 40.2519C143.685 40.4594 143.821 40.6017 144.017 40.6788C144.218 40.7559 144.539 40.8033 144.977 40.8211V41.1858C144.414 41.1502 143.643 41.1325 142.665 41.1325C141.615 41.1325 140.838 41.1502 140.334 41.1858V40.8211C140.773 40.8033 141.09 40.7559 141.286 40.6788C141.488 40.6017 141.624 40.4594 141.695 40.2519C141.772 40.0443 141.811 39.7122 141.811 39.2556V32.0418C141.811 31.5793 141.772 31.2443 141.695 31.0367C141.624 30.8292 141.491 30.6898 141.295 30.6187C141.099 30.5416 140.779 30.4941 140.334 30.4763V30.1117C140.838 30.1472 141.58 30.165 142.558 30.165C142.766 30.165 143.385 30.1561 144.417 30.1383L145.129 30.1294C146.036 30.1294 146.804 30.248 147.432 30.4852C148.067 30.7224 148.541 31.0486 148.856 31.4637C149.176 31.8728 149.336 32.3443 149.336 32.878C149.336 33.3227 149.223 33.7556 148.998 34.1766C148.773 34.5917 148.387 34.9623 147.842 35.2885C147.302 35.6087 146.59 35.8222 145.707 35.9289C145.914 35.9349 146.122 35.9556 146.329 35.9912C146.976 36.092 147.486 36.2877 147.859 36.5783C148.239 36.8688 148.506 37.3373 148.66 37.9837L149.06 39.6381C149.161 40.0651 149.268 40.3675 149.38 40.5454C149.493 40.7174 149.641 40.8033 149.825 40.8033C150.128 40.8033 150.463 40.5958 150.83 40.1807L151.079 40.4209ZM144.666 30.4763C144.34 30.4763 144.094 30.5208 143.928 30.6098C143.768 30.6928 143.655 30.844 143.59 31.0634C143.531 31.2828 143.501 31.609 143.501 32.0418V35.7066H144.728C145.458 35.7066 146.027 35.5969 146.436 35.3774C146.845 35.1521 147.127 34.8497 147.281 34.4702C147.435 34.0847 147.512 33.6222 147.512 33.0826C147.512 32.2049 147.29 31.5526 146.845 31.1257C146.407 30.6928 145.68 30.4763 144.666 30.4763Z" fill="#AC0014"/>
<path d="M155.598 29.8537C155.972 29.8537 156.292 29.8863 156.559 29.9515C156.831 30.0108 157.057 30.0879 157.235 30.1828C157.413 30.2718 157.608 30.3874 157.822 30.5297C158.106 30.7017 158.314 30.7877 158.444 30.7877C158.557 30.7877 158.643 30.7224 158.702 30.592C158.762 30.4615 158.809 30.2569 158.845 29.9782H159.263C159.203 30.6127 159.174 31.7305 159.174 33.3316H158.756C158.708 32.7742 158.572 32.2613 158.346 31.7928C158.127 31.3184 157.801 30.9359 157.368 30.6453C156.941 30.3488 156.407 30.2006 155.767 30.2006C155.34 30.2006 154.958 30.2807 154.619 30.4408C154.281 30.5949 154.018 30.8084 153.828 31.0812C153.638 31.354 153.543 31.6623 153.543 32.0063C153.543 32.3858 153.638 32.7149 153.828 32.9936C154.018 33.2664 154.261 33.5036 154.557 33.7052C154.854 33.9009 155.278 34.1499 155.829 34.4524C156.096 34.5888 156.292 34.6955 156.416 34.7726C157.169 35.1699 157.774 35.5287 158.231 35.8489C158.693 36.1691 159.061 36.5338 159.334 36.9429C159.613 37.3462 159.752 37.8147 159.752 38.3483C159.752 39.0125 159.586 39.5788 159.254 40.0473C158.922 40.5098 158.471 40.8597 157.902 41.0969C157.338 41.3281 156.71 41.4438 156.016 41.4438C155.435 41.4438 154.958 41.3815 154.584 41.257C154.21 41.1384 153.857 40.9753 153.525 40.7678C153.253 40.5958 153.045 40.5098 152.903 40.5098C152.79 40.5098 152.704 40.575 152.645 40.7055C152.586 40.83 152.538 41.0316 152.503 41.3104H152.084C152.132 40.7174 152.156 39.3831 152.156 37.3076H152.574C152.657 38.4343 152.959 39.3446 153.481 40.0384C154.003 40.7322 154.806 41.0791 155.891 41.0791C156.277 41.0791 156.639 41.005 156.977 40.8567C157.321 40.7085 157.599 40.4802 157.813 40.1718C158.026 39.8634 158.133 39.478 158.133 39.0155C158.133 38.6122 158.014 38.2564 157.777 37.9481C157.546 37.6397 157.238 37.364 156.852 37.1208C156.467 36.8718 155.927 36.5694 155.233 36.2136C154.587 35.8815 154.047 35.5642 153.614 35.2618C153.187 34.9535 152.841 34.5888 152.574 34.1677C152.307 33.7467 152.173 33.2575 152.173 32.7001C152.173 32.0952 152.331 31.5793 152.645 31.1524C152.959 30.7195 153.374 30.3963 153.89 30.1828C154.412 29.9634 154.981 29.8537 155.598 29.8537Z" fill="#AC0014"/>
<path d="M170.63 28.6529C170.192 28.6707 169.871 28.7181 169.67 28.7952C169.474 28.8723 169.338 29.0146 169.261 29.2222C169.189 29.4297 169.154 29.7618 169.154 30.2184V39.2556C169.154 39.7122 169.189 40.0443 169.261 40.2519C169.338 40.4535 169.474 40.5899 169.67 40.661C169.871 40.7322 170.192 40.7678 170.63 40.7678H171.965C172.724 40.7678 173.299 40.661 173.69 40.4475C174.088 40.2341 174.372 39.8931 174.544 39.4246C174.722 38.9562 174.858 38.2683 174.953 37.361H175.371C175.336 37.7405 175.318 38.2386 175.318 38.8554C175.318 39.5432 175.359 40.3201 175.443 41.1858C174.618 41.1502 173.228 41.1325 171.271 41.1325C168.94 41.1325 167.179 41.1502 165.987 41.1858V40.8211C166.426 40.8033 166.743 40.7559 166.939 40.6788C167.141 40.6017 167.277 40.4594 167.348 40.2519C167.425 40.0443 167.464 39.7122 167.464 39.2556V30.2184C167.464 29.7618 167.425 29.4297 167.348 29.2222C167.277 29.0146 167.141 28.8723 166.939 28.7952C166.743 28.7181 166.426 28.6707 165.987 28.6529V28.2882C166.491 28.3238 167.268 28.3416 168.318 28.3416C169.302 28.3416 170.073 28.3238 170.63 28.2882V28.6529Z" fill="#AC0014"/>
<path d="M185.956 39.6559C186.288 40.409 186.709 40.7974 187.219 40.8211V41.1858C186.721 41.1502 186.072 41.1325 185.271 41.1325C184.228 41.1325 183.448 41.1502 182.932 41.1858V40.8211C183.389 40.8033 183.721 40.747 183.928 40.6521C184.136 40.5573 184.24 40.3912 184.24 40.154C184.24 39.9346 184.157 39.647 183.991 39.2912L183.074 37.2187H178.627L178.013 38.5796C177.812 39.0481 177.711 39.4365 177.711 39.7449C177.711 40.3853 178.182 40.744 179.125 40.8211V41.1858C178.763 41.1502 178.212 41.1325 177.471 41.1325C176.729 41.1325 176.202 41.1502 175.887 41.1858V40.8211C176.207 40.7381 176.486 40.5543 176.723 40.2696C176.961 39.9791 177.18 39.5996 177.382 39.1311L181.402 30.0227H181.696L185.956 39.6559ZM180.86 32.2197L178.787 36.854H182.914L180.86 32.2197Z" fill="#AC0014"/>
<path d="M200.615 30.165C201.38 30.165 201.908 30.1472 202.198 30.1117V30.4763C201.866 30.5475 201.585 30.7224 201.353 31.0011C201.128 31.2739 200.918 31.7009 200.722 32.282L197.591 41.2748H197.297L194.487 34.3278L191.525 41.2748H191.231L187.513 31.6416C187.222 30.8885 186.804 30.5001 186.259 30.4763V30.1117C186.751 30.1472 187.4 30.165 188.207 30.165C189.25 30.165 190.027 30.1472 190.537 30.1117V30.4763C190.075 30.4941 189.749 30.5475 189.559 30.6364C189.369 30.7254 189.274 30.8914 189.274 31.1346C189.274 31.3362 189.342 31.6268 189.479 32.0063L192.067 39.0599L194.282 33.8208L193.401 31.6416C193.093 30.8885 192.672 30.5001 192.138 30.4763V30.1117C192.636 30.1472 193.286 30.165 194.086 30.165C195.13 30.165 195.907 30.1472 196.417 30.1117V30.4763C195.96 30.4941 195.634 30.5505 195.438 30.6453C195.243 30.7402 195.145 30.9063 195.145 31.1435C195.145 31.3273 195.219 31.6149 195.367 32.0063L198 38.9354L199.957 33.2249C200.188 32.5666 200.304 32.03 200.304 31.6149C200.304 31.2117 200.191 30.927 199.966 30.761C199.74 30.589 199.402 30.4941 198.952 30.4763V30.1117C199.314 30.1472 199.868 30.165 200.615 30.165Z" fill="#AC0014"/>
<path d="M212.97 28.0302C214.127 28.0302 215.138 28.2912 216.003 28.813C216.875 29.3348 217.548 30.0939 218.022 31.0901C218.503 32.0804 218.743 33.2605 218.743 34.6303C218.743 35.9704 218.497 37.1564 218.005 38.1882C217.513 39.22 216.828 40.0206 215.95 40.5899C215.072 41.1591 214.073 41.4438 212.952 41.4438C211.796 41.4438 210.782 41.1829 209.91 40.661C209.045 40.1392 208.371 39.3831 207.891 38.3928C207.417 37.3966 207.18 36.2136 207.18 34.8437C207.18 33.5036 207.426 32.3176 207.918 31.2858C208.41 30.254 209.095 29.4534 209.973 28.8842C210.85 28.3149 211.849 28.0302 212.97 28.0302ZM212.899 28.3594C212.122 28.3594 211.437 28.6321 210.844 29.1777C210.251 29.7173 209.795 30.4734 209.474 31.4459C209.154 32.4125 208.994 33.5214 208.994 34.7726C208.994 36.0357 209.172 37.1475 209.528 38.1082C209.884 39.0688 210.367 39.8101 210.978 40.3319C211.594 40.8537 212.276 41.1147 213.024 41.1147C213.8 41.1147 214.482 40.8449 215.069 40.3052C215.662 39.7597 216.119 39.0036 216.439 38.037C216.759 37.0645 216.92 35.9526 216.92 34.7014C216.92 33.4384 216.742 32.3265 216.386 31.3658C216.03 30.4052 215.547 29.6639 214.936 29.1421C214.325 28.6203 213.646 28.3594 212.899 28.3594Z" fill="#AC0014"/>
<path d="M229.203 30.1117C229.12 30.841 229.079 31.4963 229.079 32.0774C229.079 32.5518 229.097 32.9284 229.132 33.2071H228.714C228.649 32.5311 228.533 32.0003 228.367 31.6149C228.207 31.2294 227.973 30.9537 227.665 30.7877C227.362 30.6157 226.959 30.5297 226.455 30.5297H225.121C224.682 30.5297 224.362 30.5653 224.16 30.6364C223.964 30.7017 223.828 30.8381 223.751 31.0456C223.68 31.2532 223.644 31.5852 223.644 32.0418V35.4308H225.156C225.542 35.4308 225.838 35.333 226.046 35.1373C226.259 34.9357 226.402 34.7163 226.473 34.4791C226.544 34.2359 226.609 33.9335 226.668 33.5718H227.086C227.045 34.0462 227.024 34.4968 227.024 34.9238L227.033 35.6087C227.033 36.095 227.072 36.7769 227.149 37.6545H226.722C226.674 37.281 226.606 36.9637 226.517 36.7028C226.434 36.4419 226.283 36.2254 226.063 36.0535C225.85 35.8815 225.548 35.7955 225.156 35.7955H223.644V39.2556C223.644 39.7122 223.692 40.0443 223.786 40.2519C223.881 40.4594 224.053 40.6017 224.302 40.6788C224.551 40.7559 224.946 40.8033 225.485 40.8211V41.1858C224.857 41.1502 223.964 41.1325 222.808 41.1325C221.764 41.1325 220.987 41.1502 220.477 41.1858V40.8211C220.916 40.8033 221.234 40.7559 221.429 40.6788C221.631 40.6017 221.767 40.4594 221.838 40.2519C221.915 40.0443 221.954 39.7122 221.954 39.2556V32.0418C221.954 31.5852 221.915 31.2532 221.838 31.0456C221.767 30.8381 221.631 30.6957 221.429 30.6187C221.234 30.5416 220.916 30.4941 220.477 30.4763V30.1117C221.634 30.1472 223.333 30.165 225.574 30.165C227.276 30.165 228.486 30.1472 229.203 30.1117Z" fill="#AC0014"/>
<path d="M239.237 30.1117C239.154 30.841 239.112 31.4963 239.112 32.0774C239.112 32.5518 239.13 32.9284 239.166 33.2071H238.748C238.682 32.5311 238.567 32.0003 238.401 31.6149C238.241 31.2294 238.006 30.9537 237.698 30.7877C237.396 30.6157 236.992 30.5297 236.488 30.5297H235.154C234.715 30.5297 234.395 30.5653 234.193 30.6364C233.998 30.7017 233.861 30.8381 233.784 31.0456C233.713 31.2532 233.678 31.5852 233.678 32.0418V35.4308H235.19C235.575 35.4308 235.872 35.333 236.079 35.1373C236.293 34.9357 236.435 34.7163 236.506 34.4791C236.577 34.2359 236.643 33.9335 236.702 33.5718H237.12C237.078 34.0462 237.058 34.4968 237.058 34.9238L237.067 35.6087C237.067 36.095 237.105 36.7769 237.182 37.6545H236.755C236.708 37.281 236.64 36.9637 236.551 36.7028C236.468 36.4419 236.316 36.2254 236.097 36.0535C235.883 35.8815 235.581 35.7955 235.19 35.7955H233.678V39.2556C233.678 39.7122 233.725 40.0443 233.82 40.2519C233.915 40.4594 234.087 40.6017 234.336 40.6788C234.585 40.7559 234.979 40.8033 235.519 40.8211V41.1858C234.89 41.1502 233.998 41.1325 232.841 41.1325C231.798 41.1325 231.021 41.1502 230.511 41.1858V40.8211C230.95 40.8033 231.267 40.7559 231.463 40.6788C231.664 40.6017 231.801 40.4594 231.872 40.2519C231.949 40.0443 231.988 39.7122 231.988 39.2556V32.0418C231.988 31.5852 231.949 31.2532 231.872 31.0456C231.801 30.8381 231.664 30.6957 231.463 30.6187C231.267 30.5416 230.95 30.4941 230.511 30.4763V30.1117C231.667 30.1472 233.366 30.165 235.608 30.165C237.31 30.165 238.519 30.1472 239.237 30.1117Z" fill="#AC0014"/>
<path d="M245.188 30.4763C244.749 30.4941 244.429 30.5416 244.227 30.6187C244.031 30.6957 243.895 30.8381 243.818 31.0456C243.747 31.2532 243.711 31.5852 243.711 32.0418V39.2556C243.711 39.7122 243.747 40.0443 243.818 40.2519C243.895 40.4594 244.031 40.6017 244.227 40.6788C244.429 40.7559 244.749 40.8033 245.188 40.8211V41.1858C244.63 41.1502 243.859 41.1325 242.875 41.1325C241.831 41.1325 241.054 41.1502 240.544 41.1858V40.8211C240.983 40.8033 241.3 40.7559 241.496 40.6788C241.698 40.6017 241.834 40.4594 241.905 40.2519C241.982 40.0443 242.021 39.7122 242.021 39.2556V32.0418C242.021 31.5852 241.982 31.2532 241.905 31.0456C241.834 30.8381 241.698 30.6957 241.496 30.6187C241.3 30.5416 240.983 30.4941 240.544 30.4763V30.1117C241.048 30.1472 241.825 30.165 242.875 30.165C243.859 30.165 244.63 30.1472 245.188 30.1117V30.4763Z" fill="#AC0014"/>
<path d="M252.206 29.8537C252.615 29.8537 252.982 29.9071 253.309 30.0138C253.641 30.1146 253.931 30.248 254.18 30.4141C254.435 30.5801 254.711 30.7877 255.008 31.0367C255.156 31.1553 255.274 31.2146 255.363 31.2146C255.612 31.2146 255.767 30.847 255.826 30.1117H256.253C256.199 30.8114 256.173 32.0863 256.173 33.9365H255.755C255.636 33.302 255.515 32.8365 255.39 32.54C255.271 32.2375 255.091 31.9262 254.847 31.606C254.504 31.1553 254.094 30.8114 253.62 30.5742C253.151 30.337 252.656 30.2184 252.135 30.2184C251.423 30.2184 250.8 30.4378 250.267 30.8766C249.733 31.3154 249.321 31.947 249.03 32.7712C248.74 33.5955 248.594 34.568 248.594 35.6888C248.594 36.8273 248.754 37.8028 249.075 38.6152C249.401 39.4217 249.84 40.0354 250.391 40.4564C250.949 40.8715 251.571 41.0791 252.259 41.0791C252.799 41.0791 253.315 40.9605 253.807 40.7233C254.299 40.4861 254.711 40.1422 255.043 39.6915C255.28 39.3772 255.455 39.0451 255.568 38.6952C255.687 38.3395 255.793 37.8324 255.888 37.1742H256.306C256.306 39.0896 256.33 40.4268 256.377 41.1858H255.959C255.9 40.4505 255.749 40.0829 255.506 40.0829C255.411 40.0829 255.289 40.1422 255.141 40.2608C254.678 40.6462 254.225 40.9397 253.78 41.1413C253.341 41.343 252.811 41.4438 252.188 41.4438C251.103 41.4438 250.154 41.2214 249.341 40.7767C248.529 40.326 247.898 39.6737 247.447 38.8198C247.002 37.9659 246.78 36.9459 246.78 35.7599C246.78 34.5977 247.011 33.5688 247.474 32.6734C247.936 31.778 248.577 31.0842 249.395 30.592C250.219 30.0998 251.156 29.8537 252.206 29.8537Z" fill="#AC0014"/>
<path d="M267.247 39.0333C267.247 39.6737 267.288 40.3912 267.372 41.1858C266.583 41.1502 265.252 41.1325 263.378 41.1325C261.136 41.1325 259.437 41.1502 258.281 41.1858V40.8211C258.72 40.8033 259.037 40.7559 259.233 40.6788C259.434 40.6017 259.571 40.4594 259.642 40.2519C259.719 40.0443 259.757 39.7122 259.757 39.2556V32.0418C259.757 31.5852 259.719 31.2532 259.642 31.0456C259.571 30.8381 259.434 30.6957 259.233 30.6187C259.037 30.5416 258.72 30.4941 258.281 30.4763V30.1117C259.437 30.1472 261.136 30.165 263.378 30.165C265.08 30.165 266.289 30.1472 267.007 30.1117C266.924 30.841 266.882 31.4963 266.882 32.0774C266.882 32.5518 266.9 32.9284 266.936 33.2071H266.518C266.452 32.5311 266.337 32.0003 266.171 31.6149C266.011 31.2294 265.776 30.9537 265.468 30.7877C265.166 30.6157 264.762 30.5297 264.258 30.5297H262.924C262.485 30.5297 262.165 30.5653 261.963 30.6364C261.768 30.7017 261.631 30.8381 261.554 31.0456C261.483 31.2532 261.447 31.5852 261.447 32.0418V35.4308H262.96C263.345 35.4308 263.642 35.333 263.849 35.1373C264.063 34.9357 264.205 34.7163 264.276 34.4791C264.347 34.2359 264.412 33.9335 264.472 33.5718H264.89C264.848 34.0462 264.828 34.4968 264.828 34.9238L264.836 35.6087C264.836 36.095 264.875 36.7769 264.952 37.6545H264.525C264.478 37.281 264.409 36.9637 264.321 36.7028C264.238 36.4419 264.086 36.2254 263.867 36.0535C263.653 35.8815 263.351 35.7955 262.96 35.7955H261.447V39.2556C261.447 39.7122 261.483 40.0443 261.554 40.2519C261.631 40.4535 261.768 40.5899 261.963 40.661C262.165 40.7322 262.485 40.7678 262.924 40.7678H264.258C264.857 40.7678 265.335 40.6729 265.69 40.4831C266.046 40.2874 266.316 39.9732 266.5 39.5403C266.684 39.1014 266.811 38.4966 266.882 37.7257H267.3C267.265 38.0518 267.247 38.4877 267.247 39.0333Z" fill="#AC0014"/>
<path d="M273.029 29.8537C273.402 29.8537 273.722 29.8863 273.989 29.9515C274.262 30.0108 274.487 30.0879 274.665 30.1828C274.843 30.2718 275.039 30.3874 275.252 30.5297C275.537 30.7017 275.745 30.7877 275.875 30.7877C275.988 30.7877 276.074 30.7224 276.133 30.592C276.192 30.4615 276.24 30.2569 276.275 29.9782H276.693C276.634 30.6127 276.604 31.7305 276.604 33.3316H276.186C276.139 32.7742 276.003 32.2613 275.777 31.7928C275.558 31.3184 275.232 30.9359 274.799 30.6453C274.372 30.3488 273.838 30.2006 273.198 30.2006C272.771 30.2006 272.388 30.2807 272.05 30.4408C271.712 30.5949 271.448 30.8084 271.259 31.0812C271.069 31.354 270.974 31.6623 270.974 32.0063C270.974 32.3858 271.069 32.7149 271.259 32.9936C271.448 33.2664 271.691 33.5036 271.988 33.7052C272.284 33.9009 272.708 34.1499 273.26 34.4524C273.527 34.5888 273.722 34.6955 273.847 34.7726C274.6 35.1699 275.205 35.5287 275.662 35.8489C276.124 36.1691 276.492 36.5338 276.765 36.9429C277.043 37.3462 277.183 37.8147 277.183 38.3483C277.183 39.0125 277.017 39.5788 276.684 40.0473C276.352 40.5098 275.902 40.8597 275.332 41.0969C274.769 41.3281 274.141 41.4438 273.447 41.4438C272.866 41.4438 272.388 41.3815 272.015 41.257C271.641 41.1384 271.288 40.9753 270.956 40.7678C270.683 40.5958 270.476 40.5098 270.334 40.5098C270.221 40.5098 270.135 40.575 270.076 40.7055C270.016 40.83 269.969 41.0316 269.933 41.3104H269.515C269.563 40.7174 269.586 39.3831 269.586 37.3076H270.004C270.087 38.4343 270.39 39.3446 270.912 40.0384C271.434 40.7322 272.237 41.0791 273.322 41.0791C273.708 41.0791 274.069 41.005 274.407 40.8567C274.751 40.7085 275.03 40.4802 275.243 40.1718C275.457 39.8634 275.564 39.478 275.564 39.0155C275.564 38.6122 275.445 38.2564 275.208 37.9481C274.977 37.6397 274.668 37.364 274.283 37.1208C273.897 36.8718 273.358 36.5694 272.664 36.2136C272.018 35.8815 271.478 35.5642 271.045 35.2618C270.618 34.9535 270.271 34.5888 270.004 34.1677C269.738 33.7467 269.604 33.2575 269.604 32.7001C269.604 32.0952 269.761 31.5793 270.076 31.1524C270.39 30.7195 270.805 30.3963 271.321 30.1828C271.843 29.9634 272.412 29.8537 273.029 29.8537Z" fill="#AC0014"/>
<rect width="46.73" height="45.938" fill="#AC0014"/>
<path d="M23.105 10.6376L23.4977 17.5185H23.105C22.5814 15.4593 21.796 13.9525 20.7924 13.0484C19.7888 12.1444 18.6107 11.6923 17.2144 11.6923C16.2981 11.6923 15.4691 11.8932 14.7273 12.295C13.9855 12.6968 13.2874 13.2996 12.7638 14.1032C12.1965 14.9068 11.8038 15.9615 11.4547 17.167C11.1057 18.3724 10.9748 19.8792 10.9748 21.5366C10.9748 22.8927 11.1057 24.0981 11.4111 25.2031C11.7166 26.3081 12.1093 27.2624 12.6765 28.0158C13.2437 28.8194 13.9419 29.4221 14.7273 29.8239C15.5563 30.2257 16.4726 30.4769 17.5198 30.4769C18.6107 30.4769 19.6579 30.1755 20.5306 29.623C21.4033 29.1207 22.3632 27.9656 23.4104 26.2579L23.8031 26.5592C22.9304 28.3674 21.8832 29.6732 20.7051 30.5271C19.527 31.3809 18.1307 31.7827 16.5163 31.7827C15.2509 31.7827 14.1164 31.5316 13.0692 31.0293C12.022 30.5271 11.1057 29.8239 10.3639 28.9198C9.62213 28.0158 9.01126 26.9108 8.57492 25.6552C8.13858 24.3995 7.92041 22.9932 7.92041 21.5366C7.92041 19.4774 8.31311 17.619 9.09852 15.9615C10.0148 14.2538 11.1057 12.948 12.4583 12.0439C13.8546 11.0896 15.3818 10.6376 16.9962 10.6376C18.2616 10.6376 19.527 10.9892 20.7487 11.6923C21.1415 11.9434 21.4033 12.0439 21.5342 12.0439C21.8396 12.0439 22.0578 11.8932 22.2323 11.6421C22.4068 11.391 22.5377 11.0394 22.625 10.6376H23.105Z" fill="white"/>
<path d="M38.1149 25.1026L38.5513 25.203L36.9805 30.8786H22.8867V30.3261H23.5849C24.3266 30.3261 24.8939 30.0247 25.2429 29.4722C25.4175 29.1207 25.5047 28.3673 25.5047 27.2121V13.6511C25.5047 12.3452 25.3738 11.5416 25.112 11.19C24.763 10.7379 24.2394 10.4868 23.5849 10.4868H22.8867V9.93433H31.1335V10.4868C30.6535 10.4868 30.2172 10.537 29.9118 10.5873C29.5627 10.6375 29.3009 10.7379 29.0827 10.8384C28.8646 10.9388 28.69 11.0393 28.6028 11.19C28.5155 11.3407 28.3846 11.4913 28.2973 11.642C28.1664 11.9434 28.1228 12.747 28.1228 14.0026V27.1618C28.1228 27.865 28.1664 28.4175 28.2537 28.7188C28.3409 29.0202 28.5155 29.2713 28.8209 29.3718C29.0827 29.4722 29.7809 29.5225 30.9153 29.5225H32.2244C33.6206 29.5225 34.6242 29.422 35.1478 29.1709C35.4096 29.0704 35.7151 28.9198 35.9332 28.7188C36.195 28.5179 36.4132 28.2668 36.675 27.9152C36.9368 27.5637 37.155 27.2121 37.3732 26.76C37.635 26.308 37.8531 25.7555 38.1149 25.1026Z" fill="white"/>
<path d="M33.1408 31.7826C33.1408 35.0975 32.3118 38.0106 30.6101 40.6223C28.8647 43.2843 26.7703 44.6404 24.3704 44.6404C23.5414 44.6404 22.7996 44.3893 22.1887 43.887C21.5342 43.3346 21.2288 42.5812 21.2288 41.7273C21.2288 41.1748 21.3597 40.6726 21.6651 40.2708C21.9706 39.8187 22.3196 39.6178 22.756 39.6178C22.9742 39.6178 23.1923 39.6681 23.4105 39.7183C23.6287 39.7685 23.7596 39.869 23.8468 40.0196C23.9341 40.1201 23.8905 40.2205 23.8032 40.2708C23.4541 40.4717 23.236 40.6223 23.1923 40.773C23.0614 41.0242 22.9742 41.3757 22.9742 41.8278C22.9742 42.4305 23.1923 42.8825 23.6723 43.2341C24.065 43.5355 24.545 43.6359 25.0686 43.6359C26.6394 43.6359 27.9484 42.5309 29.0393 40.3712C30.0865 38.2617 30.6537 35.7504 30.6537 32.8373C30.6537 30.4767 30.1737 28.4174 29.2574 26.7097C28.2538 24.8012 26.9012 23.8469 25.2867 23.8469C23.9777 23.8469 22.8869 24.2989 21.9269 25.1527C20.9234 26.107 20.3998 27.2622 20.3998 28.6183V46.2979C20.3998 48.4576 20.0507 50.2657 19.3089 51.6721C18.5671 53.0784 17.7381 53.7816 16.7345 53.7816C16.2545 53.7816 15.8618 53.6811 15.5128 53.43C15.1637 53.1789 15.0328 52.8775 15.0328 52.4255C14.9892 52.1241 15.0328 51.9232 15.1201 51.6721C15.2073 51.4712 15.3382 51.3205 15.4691 51.1698C15.5564 51.1196 15.6 51.0694 15.6437 51.0694C15.7309 51.0694 15.7746 51.1196 15.7309 51.2703C15.6873 51.4712 15.6873 51.6721 15.6873 51.8227C15.7309 52.0739 15.8182 52.2748 15.9055 52.3752C16.08 52.5761 16.2545 52.6264 16.56 52.6264C16.6473 52.6264 16.6909 52.6264 16.7782 52.6264C17.3018 52.5259 17.6945 52.1241 17.9126 51.4209C18.1308 50.7178 18.2617 49.7133 18.2617 48.4074V26.6595C17.9999 26.76 17.7381 26.8102 17.4327 26.8604C17.1272 26.9106 16.7782 26.9106 16.3418 26.9106C15.9491 26.9106 15.5564 26.76 15.251 26.4586C14.9455 26.1573 14.771 25.7554 14.771 25.3034C14.771 24.4998 15.1201 24.0478 15.7746 23.8971C15.9055 23.8971 15.9927 23.8469 16.0364 23.8469C16.2109 23.8469 16.2982 23.8971 16.3854 23.9473C16.4727 24.0478 16.56 24.098 16.56 24.1482C16.56 24.1984 16.4727 24.2487 16.3418 24.3491C16.1673 24.4496 16.08 24.6505 16.08 24.9518C16.08 25.0021 16.08 25.0523 16.08 25.1025C16.08 25.1527 16.1236 25.203 16.1236 25.203C16.2109 25.4039 16.3418 25.5545 16.5163 25.6048C16.6909 25.655 16.9527 25.7052 17.2145 25.7052C17.3454 25.7052 17.4327 25.7052 17.4763 25.7052C17.8254 25.7052 18.4799 25.4541 19.3962 24.9518C20.6616 24.2989 21.6215 23.8469 22.276 23.5455C23.585 23.0432 24.8068 22.7921 25.8976 22.7921C27.9484 22.7921 29.6938 23.6962 31.1337 25.5043C32.4427 27.212 33.1408 29.3215 33.1408 31.7826Z" fill="white"/>
</svg>
