<svg width="367" height="437" viewBox="0 0 367 437" fill="none" xmlns="http://www.w3.org/2000/svg">
<g filter="url(#filter0_i)">
<path d="M181.932 7.31665L186.637 75.7953H181.932C175.658 55.3017 166.248 40.3064 154.224 31.3092C142.199 22.312 128.084 17.8134 111.355 17.8134C100.376 17.8134 90.443 19.8128 81.5555 23.8115C72.6681 27.8103 64.3034 33.8084 58.0299 41.8059C51.2336 49.8034 46.5285 60.3001 42.3461 72.2964C38.1638 84.2926 36.5954 99.288 36.5954 115.783C36.5954 129.279 38.1638 141.275 41.8233 152.271C45.4829 163.268 50.188 172.765 56.9843 180.263C63.7806 188.26 72.1453 194.258 81.5555 198.257C91.4886 202.256 102.467 204.755 115.014 204.755C128.084 204.755 140.631 201.756 151.087 196.258C161.543 191.259 173.044 179.763 185.591 162.768L190.296 165.767C179.84 183.762 167.293 196.758 153.178 205.255C139.063 213.752 122.333 217.751 102.99 217.751C87.829 217.751 74.2364 215.252 61.6894 210.253C49.1424 205.255 38.1638 198.257 29.2763 189.26C20.3889 180.263 13.0698 169.266 7.84188 156.77C2.61396 144.274 0 130.278 0 115.783C0 95.2892 4.70513 76.795 14.1154 60.3001C25.094 43.3054 38.1638 30.3095 54.3704 21.3123C71.0997 11.8152 89.3974 7.31665 108.741 7.31665C123.902 7.31665 139.063 10.8156 153.701 17.8134C158.406 20.3126 161.543 21.3123 163.111 21.3123C166.771 21.3123 169.385 19.8128 171.476 17.3135C173.567 14.8143 175.135 11.3154 176.181 7.31665H181.932Z" fill="#BDBDBD" fill-opacity="0.5"/>
<path d="M361.772 151.272L367 152.272L348.18 208.754H179.318V203.256H187.683C196.57 203.256 203.366 200.257 207.549 194.759C209.64 191.26 210.685 183.762 210.685 172.266V37.3079C210.685 24.312 209.117 16.3145 205.98 12.8156C201.798 8.31696 195.524 5.81774 187.683 5.81774H179.318V0.319458H278.126V5.81774C272.375 5.81774 267.147 6.31759 263.487 6.81743C259.305 7.31728 256.168 8.31696 253.554 9.31665C250.94 10.3163 248.849 11.316 247.804 12.8156C246.758 14.3151 245.19 15.8146 244.144 17.3142C242.576 20.3132 242.053 28.3107 242.053 40.8068V171.766C242.053 178.764 242.576 184.262 243.621 187.261C244.667 190.26 246.758 192.759 250.418 193.759C253.554 194.759 261.919 195.259 275.512 195.259H291.195C307.925 195.259 319.949 194.259 326.222 191.76C329.359 190.76 333.019 189.261 335.633 187.261C338.769 185.262 341.383 182.763 344.52 179.264C347.657 175.765 350.271 172.266 352.885 167.767C356.022 163.269 358.635 157.77 361.772 151.272Z" fill="#BDBDBD" fill-opacity="0.5"/>
<path d="M302.175 217.752C302.175 250.742 292.241 279.733 271.853 305.725C250.941 332.217 225.847 345.712 197.093 345.712C187.16 345.712 178.273 343.213 170.954 338.215C163.112 332.717 159.452 325.219 159.452 316.722C159.452 311.223 161.021 306.225 164.68 302.226C168.34 297.727 172.522 295.728 177.75 295.728C180.364 295.728 182.978 296.228 185.592 296.728C188.206 297.228 189.774 298.227 190.82 299.727C191.865 300.727 191.343 301.726 190.297 302.226C186.115 304.225 183.501 305.725 182.978 307.225C181.41 309.724 180.364 313.223 180.364 317.721C180.364 323.719 182.978 328.218 188.729 331.717C193.434 334.716 199.185 335.716 205.458 335.716C224.279 335.716 239.962 324.719 253.032 303.226C265.579 282.232 272.375 257.24 272.375 228.249C272.375 204.756 266.625 184.263 255.646 167.268C243.622 148.274 227.415 138.777 208.072 138.777C192.388 138.777 179.318 143.276 167.817 151.773C155.793 161.27 149.519 172.766 149.519 186.262V362.207C149.519 383.701 145.337 401.695 136.449 415.691C127.562 429.686 117.629 436.684 105.605 436.684C99.854 436.684 95.1489 435.684 90.9666 433.185C86.7842 430.686 85.2159 427.687 85.2159 423.188C84.6931 420.189 85.2159 418.19 86.2614 415.691C87.307 413.691 88.8754 412.192 90.4438 410.692C91.4894 410.192 92.0121 409.693 92.5349 409.693C93.5805 409.693 94.1033 410.192 93.5805 411.692C93.0577 413.691 93.0577 415.691 93.0577 417.19C93.5805 419.689 94.6261 421.689 95.6717 422.689C97.7629 424.688 99.854 425.188 103.514 425.188C104.559 425.188 105.082 425.188 106.128 425.188C112.401 424.188 117.106 420.189 119.72 413.191C122.334 406.194 123.902 396.197 123.902 383.201V166.768C120.766 167.768 117.629 168.268 113.969 168.768C110.31 169.267 106.128 169.267 100.9 169.267C96.1945 169.267 91.4894 167.768 87.8298 164.769C84.1703 161.77 82.0791 157.771 82.0791 153.272C82.0791 145.275 86.2614 140.776 94.1033 139.277C95.6717 139.277 96.7173 138.777 97.2401 138.777C99.3312 138.777 100.377 139.277 101.422 139.777C102.468 140.776 103.514 141.276 103.514 141.776C103.514 142.276 102.468 142.776 100.9 143.775C98.8084 144.775 97.7629 146.775 97.7629 149.774C97.7629 150.273 97.7629 150.773 97.7629 151.273C97.7629 151.773 98.2857 152.273 98.2857 152.273C99.3312 154.272 100.9 155.772 102.991 156.272C105.082 156.771 108.219 157.271 111.355 157.271C112.924 157.271 113.969 157.271 114.492 157.271C118.675 157.271 126.516 154.772 137.495 149.774C152.656 143.276 164.157 138.777 171.999 135.778C187.683 130.779 202.321 128.28 215.391 128.28C239.962 128.28 260.874 137.277 278.126 155.272C293.81 172.267 302.175 193.26 302.175 217.752Z" fill="#BDBDBD" fill-opacity="0.5"/>
</g>
<defs>
<filter id="filter0_i" x="0" y="0.319458" width="367" height="440.365" filterUnits="userSpaceOnUse" color-interpolation-filters="sRGB">
<feFlood flood-opacity="0" result="BackgroundImageFix"/>
<feBlend mode="normal" in="SourceGraphic" in2="BackgroundImageFix" result="shape"/>
<feColorMatrix in="SourceAlpha" type="matrix" values="0 0 0 0 0 0 0 0 0 0 0 0 0 0 0 0 0 0 127 0" result="hardAlpha"/>
<feOffset dy="4"/>
<feGaussianBlur stdDeviation="2"/>
<feComposite in2="hardAlpha" operator="arithmetic" k2="-1" k3="1"/>
<feColorMatrix type="matrix" values="0 0 0 0 0 0 0 0 0 0 0 0 0 0 0 0 0 0 0.25 0"/>
<feBlend mode="normal" in2="shape" result="effect1_innerShadow"/>
</filter>
</defs>
</svg>
