<svg width="208" height="248" viewBox="0 0 208 248" fill="none" xmlns="http://www.w3.org/2000/svg">
<path d="M29.8294 200.326L54.6634 159.146L98.0369 182.195L73.7514 222.928L60.3743 201.45L29.8294 200.326Z" stroke="#C4C4C4" stroke-width="5"/>
<path d="M114.541 228.23L102.436 181.69L149.231 166.768L161.401 212.604L136.689 207.165L114.541 228.23Z" stroke="#C4C4C4" stroke-width="5"/>
<path d="M149.916 32.6509L152.371 32.1784L149.916 32.6509L150.442 35.3809C151.573 41.256 156.708 45.5059 162.691 45.518L165.471 45.5236C170.214 45.5332 173.757 49.8867 172.803 54.5321L172.244 57.2554C171.04 63.116 174.158 69.0077 179.681 71.3084L182.248 72.3775C186.625 74.2012 188.233 79.5792 185.574 83.506L184.015 85.8079C180.66 90.7619 181.287 97.3984 185.509 101.638L187.47 103.607C190.817 106.967 190.244 112.551 186.285 115.161L183.964 116.692C178.969 119.985 177.007 126.356 179.286 131.888L180.344 134.459C182.15 138.844 179.484 143.783 174.827 144.679L172.097 145.205C166.222 146.336 161.972 151.471 161.96 157.454L161.955 160.234C161.945 164.977 157.592 168.52 152.946 167.566L150.223 167.007C144.362 165.803 138.471 168.922 136.17 174.444L135.101 177.011C133.277 181.388 127.899 182.996 123.972 180.337L121.67 178.778C116.716 175.423 110.08 176.05 105.841 180.272L103.871 182.233C100.511 185.58 94.9271 185.007 92.3168 181.048L90.7866 178.727C87.4934 173.732 81.1225 171.77 75.5903 174.049L73.0198 175.107C68.6347 176.913 63.6953 174.247 62.7989 169.59L62.2733 166.86C61.1424 160.985 56.0069 156.735 50.024 156.723L47.2439 156.718C42.5016 156.708 38.9585 152.355 39.9124 147.709L40.4715 144.986C41.6749 139.125 38.5568 133.234 33.0339 130.933L30.4676 129.864C26.0899 128.04 24.4825 122.662 27.1415 118.735L28.7003 116.433C32.0549 111.479 31.4287 104.843 27.2067 100.604L25.2449 98.634C21.8983 95.2739 22.4713 89.6901 26.4307 87.0798L28.7517 85.5496C33.7467 82.2564 35.7079 75.8855 33.4295 70.3533L32.3708 67.7828C30.5648 63.3977 33.2311 58.4583 37.8879 57.5619L40.6179 57.0363C46.4929 55.9054 50.7428 50.7699 50.7549 44.787L50.7606 42.0069C50.7701 37.2646 55.1237 33.7215 59.7691 34.6754L62.4923 35.2345C68.353 36.438 74.2447 33.3198 76.5454 27.7969L77.6145 25.2306C79.4382 20.8529 84.8162 19.2456 88.7429 21.9046L91.0449 23.4633C95.9989 26.8179 102.635 26.1917 106.875 21.9697L108.844 20.0079C112.204 16.6613 117.788 17.2344 120.398 21.1937L121.929 23.5147C125.222 28.5098 131.593 30.4709 137.125 28.1925L139.696 27.1338C144.081 25.3278 149.02 27.9941 149.916 32.6509Z" fill="white" stroke="#CCCCCC" stroke-width="5"/>
<circle cx="106.358" cy="101.121" r="60.5" transform="rotate(5.85974 106.358 101.121)" fill="white" stroke="#C4C4C4" stroke-width="5" stroke-linecap="round" stroke-linejoin="round" stroke-dasharray="5 20"/>
<path d="M143.489 67.9284L98.2543 137.287L72.38 100.92" stroke="url(#paint0_linear)" stroke-width="10" stroke-miterlimit="2.9238" stroke-linecap="round"/>
<defs>
<linearGradient id="paint0_linear" x1="109.616" y1="64.9971" x2="103.322" y2="137.725" gradientUnits="userSpaceOnUse">
<stop stop-color="#CCCCCC"/>
<stop offset="1" stop-color="#BDBDBD" stop-opacity="0.5"/>
</linearGradient>
</defs>
</svg>
